%TF.GenerationSoftware,KiCad,Pcbnew,6.0.0-d3dd2cf0fa~116~ubuntu21.10.1*%
%TF.CreationDate,2022-01-01T15:31:35+02:00*%
%TF.ProjectId,moca-hcho,6d6f6361-2d68-4636-986f-2e6b69636164,v1.0*%
%TF.SameCoordinates,Original*%
%TF.FileFunction,Legend,Top*%
%TF.FilePolarity,Positive*%
%FSLAX46Y46*%
G04 Gerber Fmt 4.6, Leading zero omitted, Abs format (unit mm)*
G04 Created by KiCad (PCBNEW 6.0.0-d3dd2cf0fa~116~ubuntu21.10.1) date 2022-01-01 15:31:35*
%MOMM*%
%LPD*%
G01*
G04 APERTURE LIST*
%ADD10C,0.150000*%
%ADD11C,0.300000*%
%ADD12C,0.120000*%
G04 APERTURE END LIST*
D10*
X76800000Y-127200000D02*
X83600000Y-127200000D01*
X76800000Y-102800000D02*
X76800000Y-127200000D01*
X76800000Y-102800000D02*
X123200000Y-102800000D01*
D11*
X83935714Y-100300000D02*
X83821428Y-100242857D01*
X83650000Y-100242857D01*
X83478571Y-100300000D01*
X83364285Y-100414285D01*
X83307142Y-100528571D01*
X83250000Y-100757142D01*
X83250000Y-100928571D01*
X83307142Y-101157142D01*
X83364285Y-101271428D01*
X83478571Y-101385714D01*
X83650000Y-101442857D01*
X83764285Y-101442857D01*
X83935714Y-101385714D01*
X83992857Y-101328571D01*
X83992857Y-100928571D01*
X83764285Y-100928571D01*
X84507142Y-101442857D02*
X84507142Y-100242857D01*
X85192857Y-101442857D01*
X85192857Y-100242857D01*
X85764285Y-101442857D02*
X85764285Y-100242857D01*
X86050000Y-100242857D01*
X86221428Y-100300000D01*
X86335714Y-100414285D01*
X86392857Y-100528571D01*
X86450000Y-100757142D01*
X86450000Y-100928571D01*
X86392857Y-101157142D01*
X86335714Y-101271428D01*
X86221428Y-101385714D01*
X86050000Y-101442857D01*
X85764285Y-101442857D01*
D10*
X67738095Y-80721428D02*
X68500000Y-80721428D01*
X68119047Y-81102380D02*
X68119047Y-80340476D01*
X68880952Y-80102380D02*
X69500000Y-80102380D01*
X69166666Y-80483333D01*
X69309523Y-80483333D01*
X69404761Y-80530952D01*
X69452380Y-80578571D01*
X69500000Y-80673809D01*
X69500000Y-80911904D01*
X69452380Y-81007142D01*
X69404761Y-81054761D01*
X69309523Y-81102380D01*
X69023809Y-81102380D01*
X68928571Y-81054761D01*
X68880952Y-81007142D01*
X69785714Y-80102380D02*
X70119047Y-81102380D01*
X70452380Y-80102380D01*
X70690476Y-80102380D02*
X71309523Y-80102380D01*
X70976190Y-80483333D01*
X71119047Y-80483333D01*
X71214285Y-80530952D01*
X71261904Y-80578571D01*
X71309523Y-80673809D01*
X71309523Y-80911904D01*
X71261904Y-81007142D01*
X71214285Y-81054761D01*
X71119047Y-81102380D01*
X70833333Y-81102380D01*
X70738095Y-81054761D01*
X70690476Y-81007142D01*
X72738095Y-80150000D02*
X72642857Y-80102380D01*
X72500000Y-80102380D01*
X72357142Y-80150000D01*
X72261904Y-80245238D01*
X72214285Y-80340476D01*
X72166666Y-80530952D01*
X72166666Y-80673809D01*
X72214285Y-80864285D01*
X72261904Y-80959523D01*
X72357142Y-81054761D01*
X72500000Y-81102380D01*
X72595238Y-81102380D01*
X72738095Y-81054761D01*
X72785714Y-81007142D01*
X72785714Y-80673809D01*
X72595238Y-80673809D01*
X73214285Y-81102380D02*
X73214285Y-80102380D01*
X73785714Y-81102380D01*
X73785714Y-80102380D01*
X74261904Y-81102380D02*
X74261904Y-80102380D01*
X74500000Y-80102380D01*
X74642857Y-80150000D01*
X74738095Y-80245238D01*
X74785714Y-80340476D01*
X74833333Y-80530952D01*
X74833333Y-80673809D01*
X74785714Y-80864285D01*
X74738095Y-80959523D01*
X74642857Y-81054761D01*
X74500000Y-81102380D01*
X74261904Y-81102380D01*
X80547619Y-81007142D02*
X80500000Y-81054761D01*
X80357142Y-81102380D01*
X80261904Y-81102380D01*
X80119047Y-81054761D01*
X80023809Y-80959523D01*
X79976190Y-80864285D01*
X79928571Y-80673809D01*
X79928571Y-80530952D01*
X79976190Y-80340476D01*
X80023809Y-80245238D01*
X80119047Y-80150000D01*
X80261904Y-80102380D01*
X80357142Y-80102380D01*
X80500000Y-80150000D01*
X80547619Y-80197619D01*
X80976190Y-81102380D02*
X80976190Y-80102380D01*
X81452380Y-81102380D02*
X81452380Y-80102380D01*
X81833333Y-80102380D01*
X81928571Y-80150000D01*
X81976190Y-80197619D01*
X82023809Y-80292857D01*
X82023809Y-80435714D01*
X81976190Y-80530952D01*
X81928571Y-80578571D01*
X81833333Y-80626190D01*
X81452380Y-80626190D01*
X82642857Y-80102380D02*
X82833333Y-80102380D01*
X82928571Y-80150000D01*
X83023809Y-80245238D01*
X83071428Y-80435714D01*
X83071428Y-80769047D01*
X83023809Y-80959523D01*
X82928571Y-81054761D01*
X82833333Y-81102380D01*
X82642857Y-81102380D01*
X82547619Y-81054761D01*
X82452380Y-80959523D01*
X82404761Y-80769047D01*
X82404761Y-80435714D01*
X82452380Y-80245238D01*
X82547619Y-80150000D01*
X82642857Y-80102380D01*
D11*
X106750000Y-95163571D02*
X106750000Y-94163571D01*
X106750000Y-94306428D02*
X106821428Y-94235000D01*
X106964285Y-94163571D01*
X107178571Y-94163571D01*
X107321428Y-94235000D01*
X107392857Y-94377857D01*
X107392857Y-95163571D01*
X107392857Y-94377857D02*
X107464285Y-94235000D01*
X107607142Y-94163571D01*
X107821428Y-94163571D01*
X107964285Y-94235000D01*
X108035714Y-94377857D01*
X108035714Y-95163571D01*
X108964285Y-95163571D02*
X108821428Y-95092142D01*
X108750000Y-95020714D01*
X108678571Y-94877857D01*
X108678571Y-94449285D01*
X108750000Y-94306428D01*
X108821428Y-94235000D01*
X108964285Y-94163571D01*
X109178571Y-94163571D01*
X109321428Y-94235000D01*
X109392857Y-94306428D01*
X109464285Y-94449285D01*
X109464285Y-94877857D01*
X109392857Y-95020714D01*
X109321428Y-95092142D01*
X109178571Y-95163571D01*
X108964285Y-95163571D01*
X110750000Y-95092142D02*
X110607142Y-95163571D01*
X110321428Y-95163571D01*
X110178571Y-95092142D01*
X110107142Y-95020714D01*
X110035714Y-94877857D01*
X110035714Y-94449285D01*
X110107142Y-94306428D01*
X110178571Y-94235000D01*
X110321428Y-94163571D01*
X110607142Y-94163571D01*
X110750000Y-94235000D01*
X112035714Y-95163571D02*
X112035714Y-94377857D01*
X111964285Y-94235000D01*
X111821428Y-94163571D01*
X111535714Y-94163571D01*
X111392857Y-94235000D01*
X112035714Y-95092142D02*
X111892857Y-95163571D01*
X111535714Y-95163571D01*
X111392857Y-95092142D01*
X111321428Y-94949285D01*
X111321428Y-94806428D01*
X111392857Y-94663571D01*
X111535714Y-94592142D01*
X111892857Y-94592142D01*
X112035714Y-94520714D01*
X112750000Y-94592142D02*
X113892857Y-94592142D01*
X114607142Y-95163571D02*
X114607142Y-93663571D01*
X115250000Y-95163571D02*
X115250000Y-94377857D01*
X115178571Y-94235000D01*
X115035714Y-94163571D01*
X114821428Y-94163571D01*
X114678571Y-94235000D01*
X114607142Y-94306428D01*
X116607142Y-95092142D02*
X116464285Y-95163571D01*
X116178571Y-95163571D01*
X116035714Y-95092142D01*
X115964285Y-95020714D01*
X115892857Y-94877857D01*
X115892857Y-94449285D01*
X115964285Y-94306428D01*
X116035714Y-94235000D01*
X116178571Y-94163571D01*
X116464285Y-94163571D01*
X116607142Y-94235000D01*
X117250000Y-95163571D02*
X117250000Y-93663571D01*
X117892857Y-95163571D02*
X117892857Y-94377857D01*
X117821428Y-94235000D01*
X117678571Y-94163571D01*
X117464285Y-94163571D01*
X117321428Y-94235000D01*
X117250000Y-94306428D01*
X118821428Y-95163571D02*
X118678571Y-95092142D01*
X118607142Y-95020714D01*
X118535714Y-94877857D01*
X118535714Y-94449285D01*
X118607142Y-94306428D01*
X118678571Y-94235000D01*
X118821428Y-94163571D01*
X119035714Y-94163571D01*
X119178571Y-94235000D01*
X119250000Y-94306428D01*
X119321428Y-94449285D01*
X119321428Y-94877857D01*
X119250000Y-95020714D01*
X119178571Y-95092142D01*
X119035714Y-95163571D01*
X118821428Y-95163571D01*
X110857142Y-96578571D02*
X111214285Y-97578571D01*
X111571428Y-96578571D01*
X112928571Y-97578571D02*
X112071428Y-97578571D01*
X112500000Y-97578571D02*
X112500000Y-96078571D01*
X112357142Y-96292857D01*
X112214285Y-96435714D01*
X112071428Y-96507142D01*
X113571428Y-97435714D02*
X113642857Y-97507142D01*
X113571428Y-97578571D01*
X113500000Y-97507142D01*
X113571428Y-97435714D01*
X113571428Y-97578571D01*
X114571428Y-96078571D02*
X114714285Y-96078571D01*
X114857142Y-96150000D01*
X114928571Y-96221428D01*
X115000000Y-96364285D01*
X115071428Y-96650000D01*
X115071428Y-97007142D01*
X115000000Y-97292857D01*
X114928571Y-97435714D01*
X114857142Y-97507142D01*
X114714285Y-97578571D01*
X114571428Y-97578571D01*
X114428571Y-97507142D01*
X114357142Y-97435714D01*
X114285714Y-97292857D01*
X114214285Y-97007142D01*
X114214285Y-96650000D01*
X114285714Y-96364285D01*
X114357142Y-96221428D01*
X114428571Y-96150000D01*
X114571428Y-96078571D01*
X103892857Y-99993571D02*
X103892857Y-98493571D01*
X104535714Y-99993571D02*
X104535714Y-99207857D01*
X104464285Y-99065000D01*
X104321428Y-98993571D01*
X104107142Y-98993571D01*
X103964285Y-99065000D01*
X103892857Y-99136428D01*
X105035714Y-98993571D02*
X105607142Y-98993571D01*
X105250000Y-98493571D02*
X105250000Y-99779285D01*
X105321428Y-99922142D01*
X105464285Y-99993571D01*
X105607142Y-99993571D01*
X105892857Y-98993571D02*
X106464285Y-98993571D01*
X106107142Y-98493571D02*
X106107142Y-99779285D01*
X106178571Y-99922142D01*
X106321428Y-99993571D01*
X106464285Y-99993571D01*
X106964285Y-98993571D02*
X106964285Y-100493571D01*
X106964285Y-99065000D02*
X107107142Y-98993571D01*
X107392857Y-98993571D01*
X107535714Y-99065000D01*
X107607142Y-99136428D01*
X107678571Y-99279285D01*
X107678571Y-99707857D01*
X107607142Y-99850714D01*
X107535714Y-99922142D01*
X107392857Y-99993571D01*
X107107142Y-99993571D01*
X106964285Y-99922142D01*
X108250000Y-99922142D02*
X108392857Y-99993571D01*
X108678571Y-99993571D01*
X108821428Y-99922142D01*
X108892857Y-99779285D01*
X108892857Y-99707857D01*
X108821428Y-99565000D01*
X108678571Y-99493571D01*
X108464285Y-99493571D01*
X108321428Y-99422142D01*
X108250000Y-99279285D01*
X108250000Y-99207857D01*
X108321428Y-99065000D01*
X108464285Y-98993571D01*
X108678571Y-98993571D01*
X108821428Y-99065000D01*
X109535714Y-99850714D02*
X109607142Y-99922142D01*
X109535714Y-99993571D01*
X109464285Y-99922142D01*
X109535714Y-99850714D01*
X109535714Y-99993571D01*
X109535714Y-99065000D02*
X109607142Y-99136428D01*
X109535714Y-99207857D01*
X109464285Y-99136428D01*
X109535714Y-99065000D01*
X109535714Y-99207857D01*
X111321428Y-98422142D02*
X110035714Y-100350714D01*
X112892857Y-98422142D02*
X111607142Y-100350714D01*
X114035714Y-98993571D02*
X114035714Y-100207857D01*
X113964285Y-100350714D01*
X113892857Y-100422142D01*
X113750000Y-100493571D01*
X113535714Y-100493571D01*
X113392857Y-100422142D01*
X114035714Y-99922142D02*
X113892857Y-99993571D01*
X113607142Y-99993571D01*
X113464285Y-99922142D01*
X113392857Y-99850714D01*
X113321428Y-99707857D01*
X113321428Y-99279285D01*
X113392857Y-99136428D01*
X113464285Y-99065000D01*
X113607142Y-98993571D01*
X113892857Y-98993571D01*
X114035714Y-99065000D01*
X115321428Y-99922142D02*
X115178571Y-99993571D01*
X114892857Y-99993571D01*
X114750000Y-99922142D01*
X114678571Y-99779285D01*
X114678571Y-99207857D01*
X114750000Y-99065000D01*
X114892857Y-98993571D01*
X115178571Y-98993571D01*
X115321428Y-99065000D01*
X115392857Y-99207857D01*
X115392857Y-99350714D01*
X114678571Y-99493571D01*
X116035714Y-99993571D02*
X116035714Y-98493571D01*
X116178571Y-99422142D02*
X116607142Y-99993571D01*
X116607142Y-98993571D02*
X116035714Y-99565000D01*
X117250000Y-99993571D02*
X117250000Y-98493571D01*
X117392857Y-99422142D02*
X117821428Y-99993571D01*
X117821428Y-98993571D02*
X117250000Y-99565000D01*
X118464285Y-99993571D02*
X118464285Y-98993571D01*
X118464285Y-98493571D02*
X118392857Y-98565000D01*
X118464285Y-98636428D01*
X118535714Y-98565000D01*
X118464285Y-98493571D01*
X118464285Y-98636428D01*
X119392857Y-99993571D02*
X119250000Y-99922142D01*
X119178571Y-99850714D01*
X119107142Y-99707857D01*
X119107142Y-99279285D01*
X119178571Y-99136428D01*
X119250000Y-99065000D01*
X119392857Y-98993571D01*
X119607142Y-98993571D01*
X119750000Y-99065000D01*
X119821428Y-99136428D01*
X119892857Y-99279285D01*
X119892857Y-99707857D01*
X119821428Y-99850714D01*
X119750000Y-99922142D01*
X119607142Y-99993571D01*
X119392857Y-99993571D01*
X120535714Y-99850714D02*
X120607142Y-99922142D01*
X120535714Y-99993571D01*
X120464285Y-99922142D01*
X120535714Y-99850714D01*
X120535714Y-99993571D01*
X121035714Y-98993571D02*
X121607142Y-98993571D01*
X121250000Y-99993571D02*
X121250000Y-98707857D01*
X121321428Y-98565000D01*
X121464285Y-98493571D01*
X121607142Y-98493571D01*
X122107142Y-99993571D02*
X122107142Y-98993571D01*
X122107142Y-98493571D02*
X122035714Y-98565000D01*
X122107142Y-98636428D01*
X122178571Y-98565000D01*
X122107142Y-98493571D01*
X122107142Y-98636428D01*
D10*
X84357142Y-81054761D02*
X84500000Y-81102380D01*
X84738095Y-81102380D01*
X84833333Y-81054761D01*
X84880952Y-81007142D01*
X84928571Y-80911904D01*
X84928571Y-80816666D01*
X84880952Y-80721428D01*
X84833333Y-80673809D01*
X84738095Y-80626190D01*
X84547619Y-80578571D01*
X84452380Y-80530952D01*
X84404761Y-80483333D01*
X84357142Y-80388095D01*
X84357142Y-80292857D01*
X84404761Y-80197619D01*
X84452380Y-80150000D01*
X84547619Y-80102380D01*
X84785714Y-80102380D01*
X84928571Y-80150000D01*
X85357142Y-80578571D02*
X85690476Y-80578571D01*
X85833333Y-81102380D02*
X85357142Y-81102380D01*
X85357142Y-80102380D01*
X85833333Y-80102380D01*
X86738095Y-81102380D02*
X86261904Y-81102380D01*
X86261904Y-80102380D01*
D11*
X83307142Y-92435714D02*
X84221428Y-92435714D01*
X83764285Y-92892857D02*
X83764285Y-91978571D01*
X85364285Y-91692857D02*
X84792857Y-91692857D01*
X84735714Y-92264285D01*
X84792857Y-92207142D01*
X84907142Y-92150000D01*
X85192857Y-92150000D01*
X85307142Y-92207142D01*
X85364285Y-92264285D01*
X85421428Y-92378571D01*
X85421428Y-92664285D01*
X85364285Y-92778571D01*
X85307142Y-92835714D01*
X85192857Y-92892857D01*
X84907142Y-92892857D01*
X84792857Y-92835714D01*
X84735714Y-92778571D01*
X85764285Y-91692857D02*
X86164285Y-92892857D01*
X86564285Y-91692857D01*
D10*
X76547619Y-81007142D02*
X76500000Y-81054761D01*
X76357142Y-81102380D01*
X76261904Y-81102380D01*
X76119047Y-81054761D01*
X76023809Y-80959523D01*
X75976190Y-80864285D01*
X75928571Y-80673809D01*
X75928571Y-80530952D01*
X75976190Y-80340476D01*
X76023809Y-80245238D01*
X76119047Y-80150000D01*
X76261904Y-80102380D01*
X76357142Y-80102380D01*
X76500000Y-80150000D01*
X76547619Y-80197619D01*
X77166666Y-80102380D02*
X77357142Y-80102380D01*
X77452380Y-80150000D01*
X77547619Y-80245238D01*
X77595238Y-80435714D01*
X77595238Y-80769047D01*
X77547619Y-80959523D01*
X77452380Y-81054761D01*
X77357142Y-81102380D01*
X77166666Y-81102380D01*
X77071428Y-81054761D01*
X76976190Y-80959523D01*
X76928571Y-80769047D01*
X76928571Y-80435714D01*
X76976190Y-80245238D01*
X77071428Y-80150000D01*
X77166666Y-80102380D01*
X78023809Y-81102380D02*
X78023809Y-80102380D01*
X78404761Y-80102380D01*
X78500000Y-80150000D01*
X78547619Y-80197619D01*
X78595238Y-80292857D01*
X78595238Y-80435714D01*
X78547619Y-80530952D01*
X78500000Y-80578571D01*
X78404761Y-80626190D01*
X78023809Y-80626190D01*
X79023809Y-81102380D02*
X79023809Y-80102380D01*
%TO.C,C5*%
X71333333Y-88057142D02*
X71285714Y-88104761D01*
X71142857Y-88152380D01*
X71047619Y-88152380D01*
X70904761Y-88104761D01*
X70809523Y-88009523D01*
X70761904Y-87914285D01*
X70714285Y-87723809D01*
X70714285Y-87580952D01*
X70761904Y-87390476D01*
X70809523Y-87295238D01*
X70904761Y-87200000D01*
X71047619Y-87152380D01*
X71142857Y-87152380D01*
X71285714Y-87200000D01*
X71333333Y-87247619D01*
X72238095Y-87152380D02*
X71761904Y-87152380D01*
X71714285Y-87628571D01*
X71761904Y-87580952D01*
X71857142Y-87533333D01*
X72095238Y-87533333D01*
X72190476Y-87580952D01*
X72238095Y-87628571D01*
X72285714Y-87723809D01*
X72285714Y-87961904D01*
X72238095Y-88057142D01*
X72190476Y-88104761D01*
X72095238Y-88152380D01*
X71857142Y-88152380D01*
X71761904Y-88104761D01*
X71714285Y-88057142D01*
%TO.C,C2*%
X74107023Y-103357142D02*
X74059404Y-103404761D01*
X73916547Y-103452380D01*
X73821309Y-103452380D01*
X73678452Y-103404761D01*
X73583214Y-103309523D01*
X73535595Y-103214285D01*
X73487976Y-103023809D01*
X73487976Y-102880952D01*
X73535595Y-102690476D01*
X73583214Y-102595238D01*
X73678452Y-102500000D01*
X73821309Y-102452380D01*
X73916547Y-102452380D01*
X74059404Y-102500000D01*
X74107023Y-102547619D01*
X74487976Y-102547619D02*
X74535595Y-102500000D01*
X74630833Y-102452380D01*
X74868928Y-102452380D01*
X74964166Y-102500000D01*
X75011785Y-102547619D01*
X75059404Y-102642857D01*
X75059404Y-102738095D01*
X75011785Y-102880952D01*
X74440357Y-103452380D01*
X75059404Y-103452380D01*
%TO.C,D3*%
X69761904Y-89502380D02*
X69761904Y-88502380D01*
X70000000Y-88502380D01*
X70142857Y-88550000D01*
X70238095Y-88645238D01*
X70285714Y-88740476D01*
X70333333Y-88930952D01*
X70333333Y-89073809D01*
X70285714Y-89264285D01*
X70238095Y-89359523D01*
X70142857Y-89454761D01*
X70000000Y-89502380D01*
X69761904Y-89502380D01*
X70666666Y-88502380D02*
X71285714Y-88502380D01*
X70952380Y-88883333D01*
X71095238Y-88883333D01*
X71190476Y-88930952D01*
X71238095Y-88978571D01*
X71285714Y-89073809D01*
X71285714Y-89311904D01*
X71238095Y-89407142D01*
X71190476Y-89454761D01*
X71095238Y-89502380D01*
X70809523Y-89502380D01*
X70714285Y-89454761D01*
X70666666Y-89407142D01*
%TO.C,U2*%
X72688095Y-109352380D02*
X72688095Y-110161904D01*
X72735714Y-110257142D01*
X72783333Y-110304761D01*
X72878571Y-110352380D01*
X73069047Y-110352380D01*
X73164285Y-110304761D01*
X73211904Y-110257142D01*
X73259523Y-110161904D01*
X73259523Y-109352380D01*
X73688095Y-109447619D02*
X73735714Y-109400000D01*
X73830952Y-109352380D01*
X74069047Y-109352380D01*
X74164285Y-109400000D01*
X74211904Y-109447619D01*
X74259523Y-109542857D01*
X74259523Y-109638095D01*
X74211904Y-109780952D01*
X73640476Y-110352380D01*
X74259523Y-110352380D01*
%TO.C,C1*%
X72933333Y-101957142D02*
X72885714Y-102004761D01*
X72742857Y-102052380D01*
X72647619Y-102052380D01*
X72504761Y-102004761D01*
X72409523Y-101909523D01*
X72361904Y-101814285D01*
X72314285Y-101623809D01*
X72314285Y-101480952D01*
X72361904Y-101290476D01*
X72409523Y-101195238D01*
X72504761Y-101100000D01*
X72647619Y-101052380D01*
X72742857Y-101052380D01*
X72885714Y-101100000D01*
X72933333Y-101147619D01*
X73885714Y-102052380D02*
X73314285Y-102052380D01*
X73600000Y-102052380D02*
X73600000Y-101052380D01*
X73504761Y-101195238D01*
X73409523Y-101290476D01*
X73314285Y-101338095D01*
%TO.C,J3*%
X120466666Y-88752380D02*
X120466666Y-89466666D01*
X120419047Y-89609523D01*
X120323809Y-89704761D01*
X120180952Y-89752380D01*
X120085714Y-89752380D01*
X120847619Y-88752380D02*
X121466666Y-88752380D01*
X121133333Y-89133333D01*
X121276190Y-89133333D01*
X121371428Y-89180952D01*
X121419047Y-89228571D01*
X121466666Y-89323809D01*
X121466666Y-89561904D01*
X121419047Y-89657142D01*
X121371428Y-89704761D01*
X121276190Y-89752380D01*
X120990476Y-89752380D01*
X120895238Y-89704761D01*
X120847619Y-89657142D01*
%TO.C,U1*%
X99238095Y-89452380D02*
X99238095Y-90261904D01*
X99285714Y-90357142D01*
X99333333Y-90404761D01*
X99428571Y-90452380D01*
X99619047Y-90452380D01*
X99714285Y-90404761D01*
X99761904Y-90357142D01*
X99809523Y-90261904D01*
X99809523Y-89452380D01*
X100809523Y-90452380D02*
X100238095Y-90452380D01*
X100523809Y-90452380D02*
X100523809Y-89452380D01*
X100428571Y-89595238D01*
X100333333Y-89690476D01*
X100238095Y-89738095D01*
%TO.C,R3*%
X74833333Y-87602380D02*
X74500000Y-87126190D01*
X74261904Y-87602380D02*
X74261904Y-86602380D01*
X74642857Y-86602380D01*
X74738095Y-86650000D01*
X74785714Y-86697619D01*
X74833333Y-86792857D01*
X74833333Y-86935714D01*
X74785714Y-87030952D01*
X74738095Y-87078571D01*
X74642857Y-87126190D01*
X74261904Y-87126190D01*
X75166666Y-86602380D02*
X75785714Y-86602380D01*
X75452380Y-86983333D01*
X75595238Y-86983333D01*
X75690476Y-87030952D01*
X75738095Y-87078571D01*
X75785714Y-87173809D01*
X75785714Y-87411904D01*
X75738095Y-87507142D01*
X75690476Y-87554761D01*
X75595238Y-87602380D01*
X75309523Y-87602380D01*
X75214285Y-87554761D01*
X75166666Y-87507142D01*
%TO.C,D2*%
X79361904Y-101352380D02*
X79361904Y-100352380D01*
X79600000Y-100352380D01*
X79742857Y-100400000D01*
X79838095Y-100495238D01*
X79885714Y-100590476D01*
X79933333Y-100780952D01*
X79933333Y-100923809D01*
X79885714Y-101114285D01*
X79838095Y-101209523D01*
X79742857Y-101304761D01*
X79600000Y-101352380D01*
X79361904Y-101352380D01*
X80314285Y-100447619D02*
X80361904Y-100400000D01*
X80457142Y-100352380D01*
X80695238Y-100352380D01*
X80790476Y-100400000D01*
X80838095Y-100447619D01*
X80885714Y-100542857D01*
X80885714Y-100638095D01*
X80838095Y-100780952D01*
X80266666Y-101352380D01*
X80885714Y-101352380D01*
%TO.C,R2*%
X90507023Y-89252380D02*
X90173690Y-88776190D01*
X89935595Y-89252380D02*
X89935595Y-88252380D01*
X90316547Y-88252380D01*
X90411785Y-88300000D01*
X90459404Y-88347619D01*
X90507023Y-88442857D01*
X90507023Y-88585714D01*
X90459404Y-88680952D01*
X90411785Y-88728571D01*
X90316547Y-88776190D01*
X89935595Y-88776190D01*
X90887976Y-88347619D02*
X90935595Y-88300000D01*
X91030833Y-88252380D01*
X91268928Y-88252380D01*
X91364166Y-88300000D01*
X91411785Y-88347619D01*
X91459404Y-88442857D01*
X91459404Y-88538095D01*
X91411785Y-88680952D01*
X90840357Y-89252380D01*
X91459404Y-89252380D01*
%TO.C,Q1*%
X82602261Y-96447619D02*
X82507023Y-96400000D01*
X82411785Y-96304761D01*
X82268928Y-96161904D01*
X82173690Y-96114285D01*
X82078452Y-96114285D01*
X82126071Y-96352380D02*
X82030833Y-96304761D01*
X81935595Y-96209523D01*
X81887976Y-96019047D01*
X81887976Y-95685714D01*
X81935595Y-95495238D01*
X82030833Y-95400000D01*
X82126071Y-95352380D01*
X82316547Y-95352380D01*
X82411785Y-95400000D01*
X82507023Y-95495238D01*
X82554642Y-95685714D01*
X82554642Y-96019047D01*
X82507023Y-96209523D01*
X82411785Y-96304761D01*
X82316547Y-96352380D01*
X82126071Y-96352380D01*
X83507023Y-96352380D02*
X82935595Y-96352380D01*
X83221309Y-96352380D02*
X83221309Y-95352380D01*
X83126071Y-95495238D01*
X83030833Y-95590476D01*
X82935595Y-95638095D01*
%TO.C,C4*%
X109833333Y-90657142D02*
X109785714Y-90704761D01*
X109642857Y-90752380D01*
X109547619Y-90752380D01*
X109404761Y-90704761D01*
X109309523Y-90609523D01*
X109261904Y-90514285D01*
X109214285Y-90323809D01*
X109214285Y-90180952D01*
X109261904Y-89990476D01*
X109309523Y-89895238D01*
X109404761Y-89800000D01*
X109547619Y-89752380D01*
X109642857Y-89752380D01*
X109785714Y-89800000D01*
X109833333Y-89847619D01*
X110690476Y-90085714D02*
X110690476Y-90752380D01*
X110452380Y-89704761D02*
X110214285Y-90419047D01*
X110833333Y-90419047D01*
%TO.C,D1*%
X79234904Y-91347380D02*
X79234904Y-90347380D01*
X79473000Y-90347380D01*
X79615857Y-90395000D01*
X79711095Y-90490238D01*
X79758714Y-90585476D01*
X79806333Y-90775952D01*
X79806333Y-90918809D01*
X79758714Y-91109285D01*
X79711095Y-91204523D01*
X79615857Y-91299761D01*
X79473000Y-91347380D01*
X79234904Y-91347380D01*
X80758714Y-91347380D02*
X80187285Y-91347380D01*
X80473000Y-91347380D02*
X80473000Y-90347380D01*
X80377761Y-90490238D01*
X80282523Y-90585476D01*
X80187285Y-90633095D01*
%TO.C,C3*%
X70183333Y-110257142D02*
X70135714Y-110304761D01*
X69992857Y-110352380D01*
X69897619Y-110352380D01*
X69754761Y-110304761D01*
X69659523Y-110209523D01*
X69611904Y-110114285D01*
X69564285Y-109923809D01*
X69564285Y-109780952D01*
X69611904Y-109590476D01*
X69659523Y-109495238D01*
X69754761Y-109400000D01*
X69897619Y-109352380D01*
X69992857Y-109352380D01*
X70135714Y-109400000D01*
X70183333Y-109447619D01*
X70516666Y-109352380D02*
X71135714Y-109352380D01*
X70802380Y-109733333D01*
X70945238Y-109733333D01*
X71040476Y-109780952D01*
X71088095Y-109828571D01*
X71135714Y-109923809D01*
X71135714Y-110161904D01*
X71088095Y-110257142D01*
X71040476Y-110304761D01*
X70945238Y-110352380D01*
X70659523Y-110352380D01*
X70564285Y-110304761D01*
X70516666Y-110257142D01*
%TO.C,R1*%
X75745833Y-91552380D02*
X75412500Y-91076190D01*
X75174404Y-91552380D02*
X75174404Y-90552380D01*
X75555357Y-90552380D01*
X75650595Y-90600000D01*
X75698214Y-90647619D01*
X75745833Y-90742857D01*
X75745833Y-90885714D01*
X75698214Y-90980952D01*
X75650595Y-91028571D01*
X75555357Y-91076190D01*
X75174404Y-91076190D01*
X76698214Y-91552380D02*
X76126785Y-91552380D01*
X76412500Y-91552380D02*
X76412500Y-90552380D01*
X76317261Y-90695238D01*
X76222023Y-90790476D01*
X76126785Y-90838095D01*
%TO.C,U3*%
X82740595Y-88152380D02*
X82740595Y-88961904D01*
X82788214Y-89057142D01*
X82835833Y-89104761D01*
X82931071Y-89152380D01*
X83121547Y-89152380D01*
X83216785Y-89104761D01*
X83264404Y-89057142D01*
X83312023Y-88961904D01*
X83312023Y-88152380D01*
X83692976Y-88152380D02*
X84312023Y-88152380D01*
X83978690Y-88533333D01*
X84121547Y-88533333D01*
X84216785Y-88580952D01*
X84264404Y-88628571D01*
X84312023Y-88723809D01*
X84312023Y-88961904D01*
X84264404Y-89057142D01*
X84216785Y-89104761D01*
X84121547Y-89152380D01*
X83835833Y-89152380D01*
X83740595Y-89104761D01*
X83692976Y-89057142D01*
D12*
%TO.C,C5*%
X70813748Y-84890000D02*
X72236252Y-84890000D01*
X70813748Y-86710000D02*
X72236252Y-86710000D01*
%TO.C,C2*%
X73961252Y-105335000D02*
X73438748Y-105335000D01*
X73961252Y-103865000D02*
X73438748Y-103865000D01*
%TO.C,D3*%
X69420000Y-90510000D02*
X69264000Y-90510000D01*
X71736000Y-90510000D02*
X71580000Y-90510000D01*
X71579837Y-93111130D02*
G75*
G03*
X71580000Y-91029039I-1079837J1041130D01*
G01*
X69264484Y-90510000D02*
G75*
G03*
X69421392Y-93742335I1235517J-1560000D01*
G01*
X69420000Y-91029039D02*
G75*
G03*
X69420163Y-93111130I1080000J-1040961D01*
G01*
X71578608Y-93742335D02*
G75*
G03*
X71735516Y-90510000I-1078609J1672335D01*
G01*
%TO.C,U2*%
X73462500Y-105840000D02*
X71787500Y-105840000D01*
X73462500Y-108960000D02*
X72812500Y-108960000D01*
X73462500Y-105840000D02*
X74112500Y-105840000D01*
X73462500Y-108960000D02*
X74112500Y-108960000D01*
%TO.C,C1*%
X74795563Y-95140000D02*
X70340000Y-95140000D01*
X75860000Y-99595563D02*
X74795563Y-100660000D01*
X70340000Y-100660000D02*
X70340000Y-98960000D01*
X76412500Y-99897500D02*
X76412500Y-99272500D01*
X70340000Y-95140000D02*
X70340000Y-96840000D01*
X75860000Y-96204437D02*
X75860000Y-96840000D01*
X76725000Y-99585000D02*
X76100000Y-99585000D01*
X75860000Y-99595563D02*
X75860000Y-98960000D01*
X75860000Y-96204437D02*
X74795563Y-95140000D01*
X74795563Y-100660000D02*
X70340000Y-100660000D01*
%TO.C,J3*%
X116320000Y-87150000D02*
X115720000Y-86550000D01*
X125880000Y-84450000D02*
X125880000Y-85750000D01*
X116320000Y-83050000D02*
X123900000Y-83050000D01*
X116320000Y-83050000D02*
X115720000Y-83650000D01*
X123900000Y-83050000D02*
X125880000Y-84450000D01*
X123900000Y-87150000D02*
X116320000Y-87150000D01*
X115720000Y-86550000D02*
X115720000Y-83650000D01*
X123340000Y-83830000D02*
X123975000Y-83830000D01*
X123975000Y-83830000D02*
X123975000Y-84465000D01*
X125880000Y-85750000D02*
X123900000Y-87150000D01*
%TO.C,U1*%
X92900000Y-89000000D02*
X107100000Y-89000000D01*
X107100000Y-89000000D02*
X107100000Y-88300000D01*
X107100000Y-68000000D02*
X91900000Y-68000000D01*
X92900000Y-89000000D02*
X92900000Y-88300000D01*
X91900000Y-79500000D02*
X92800000Y-79500000D01*
X107100000Y-68000000D02*
X107100000Y-79600000D01*
X91900000Y-68000000D02*
X91900000Y-79500000D01*
%TO.C,J1*%
X85995000Y-97740000D02*
X94050000Y-97740000D01*
X85995000Y-95460000D02*
X94050000Y-95460000D01*
X85995000Y-93540000D02*
X94050000Y-93540000D01*
X85995000Y-99660000D02*
X94050000Y-99660000D01*
%TO.C,R3*%
X74772936Y-88065000D02*
X75227064Y-88065000D01*
X74772936Y-89535000D02*
X75227064Y-89535000D01*
%TO.C,D2*%
X82300000Y-100000000D02*
X78450000Y-100000000D01*
X82300000Y-98000000D02*
X78450000Y-98000000D01*
X82300000Y-100000000D02*
X82300000Y-98000000D01*
%TO.C,R2*%
X89335000Y-88560436D02*
X89335000Y-89014564D01*
X87865000Y-88560436D02*
X87865000Y-89014564D01*
%TO.C,Q1*%
X79700000Y-97460000D02*
X79050000Y-97460000D01*
X79700000Y-94340000D02*
X78025000Y-94340000D01*
X79700000Y-97460000D02*
X80350000Y-97460000D01*
X79700000Y-94340000D02*
X80350000Y-94340000D01*
%TO.C,C4*%
X110910000Y-87986252D02*
X110910000Y-86563748D01*
X109090000Y-87986252D02*
X109090000Y-86563748D01*
%TO.C,D1*%
X77900000Y-91800000D02*
X77900000Y-93800000D01*
X77900000Y-91800000D02*
X81750000Y-91800000D01*
X77900000Y-93800000D02*
X81750000Y-93800000D01*
%TO.C,C3*%
X69627500Y-107661252D02*
X69627500Y-107138748D01*
X71097500Y-107661252D02*
X71097500Y-107138748D01*
%TO.C,R1*%
X76139564Y-93535000D02*
X75685436Y-93535000D01*
X76139564Y-92065000D02*
X75685436Y-92065000D01*
%TO.C,U3*%
X87160000Y-89400000D02*
X87160000Y-87500000D01*
X84840000Y-88000000D02*
X84840000Y-89400000D01*
%TD*%
M02*
