%TF.GenerationSoftware,KiCad,Pcbnew,6.0.0-d3dd2cf0fa~116~ubuntu21.10.1*%
%TF.CreationDate,2022-01-01T15:31:35+02:00*%
%TF.ProjectId,moca-hcho,6d6f6361-2d68-4636-986f-2e6b69636164,v1.0*%
%TF.SameCoordinates,Original*%
%TF.FileFunction,Legend,Bot*%
%TF.FilePolarity,Positive*%
%FSLAX46Y46*%
G04 Gerber Fmt 4.6, Leading zero omitted, Abs format (unit mm)*
G04 Created by KiCad (PCBNEW 6.0.0-d3dd2cf0fa~116~ubuntu21.10.1) date 2022-01-01 15:31:35*
%MOMM*%
%LPD*%
G01*
G04 APERTURE LIST*
%ADD10C,0.150000*%
%ADD11C,0.300000*%
G04 APERTURE END LIST*
D10*
X74261904Y-80150000D02*
X74357142Y-80102380D01*
X74500000Y-80102380D01*
X74642857Y-80150000D01*
X74738095Y-80245238D01*
X74785714Y-80340476D01*
X74833333Y-80530952D01*
X74833333Y-80673809D01*
X74785714Y-80864285D01*
X74738095Y-80959523D01*
X74642857Y-81054761D01*
X74500000Y-81102380D01*
X74404761Y-81102380D01*
X74261904Y-81054761D01*
X74214285Y-81007142D01*
X74214285Y-80673809D01*
X74404761Y-80673809D01*
X73785714Y-81102380D02*
X73785714Y-80102380D01*
X73214285Y-81102380D01*
X73214285Y-80102380D01*
X72738095Y-81102380D02*
X72738095Y-80102380D01*
X72500000Y-80102380D01*
X72357142Y-80150000D01*
X72261904Y-80245238D01*
X72214285Y-80340476D01*
X72166666Y-80530952D01*
X72166666Y-80673809D01*
X72214285Y-80864285D01*
X72261904Y-80959523D01*
X72357142Y-81054761D01*
X72500000Y-81102380D01*
X72738095Y-81102380D01*
D11*
X86392857Y-92435714D02*
X85478571Y-92435714D01*
X85935714Y-92892857D02*
X85935714Y-91978571D01*
X84335714Y-91692857D02*
X84907142Y-91692857D01*
X84964285Y-92264285D01*
X84907142Y-92207142D01*
X84792857Y-92150000D01*
X84507142Y-92150000D01*
X84392857Y-92207142D01*
X84335714Y-92264285D01*
X84278571Y-92378571D01*
X84278571Y-92664285D01*
X84335714Y-92778571D01*
X84392857Y-92835714D01*
X84507142Y-92892857D01*
X84792857Y-92892857D01*
X84907142Y-92835714D01*
X84964285Y-92778571D01*
X83935714Y-91692857D02*
X83535714Y-92892857D01*
X83135714Y-91692857D01*
D10*
X78452380Y-81007142D02*
X78500000Y-81054761D01*
X78642857Y-81102380D01*
X78738095Y-81102380D01*
X78880952Y-81054761D01*
X78976190Y-80959523D01*
X79023809Y-80864285D01*
X79071428Y-80673809D01*
X79071428Y-80530952D01*
X79023809Y-80340476D01*
X78976190Y-80245238D01*
X78880952Y-80150000D01*
X78738095Y-80102380D01*
X78642857Y-80102380D01*
X78500000Y-80150000D01*
X78452380Y-80197619D01*
X77833333Y-80102380D02*
X77642857Y-80102380D01*
X77547619Y-80150000D01*
X77452380Y-80245238D01*
X77404761Y-80435714D01*
X77404761Y-80769047D01*
X77452380Y-80959523D01*
X77547619Y-81054761D01*
X77642857Y-81102380D01*
X77833333Y-81102380D01*
X77928571Y-81054761D01*
X78023809Y-80959523D01*
X78071428Y-80769047D01*
X78071428Y-80435714D01*
X78023809Y-80245238D01*
X77928571Y-80150000D01*
X77833333Y-80102380D01*
X76976190Y-81102380D02*
X76976190Y-80102380D01*
X76595238Y-80102380D01*
X76500000Y-80150000D01*
X76452380Y-80197619D01*
X76404761Y-80292857D01*
X76404761Y-80435714D01*
X76452380Y-80530952D01*
X76500000Y-80578571D01*
X76595238Y-80626190D01*
X76976190Y-80626190D01*
X75976190Y-81102380D02*
X75976190Y-80102380D01*
X71261904Y-80721428D02*
X70500000Y-80721428D01*
X70880952Y-81102380D02*
X70880952Y-80340476D01*
X70119047Y-80102380D02*
X69500000Y-80102380D01*
X69833333Y-80483333D01*
X69690476Y-80483333D01*
X69595238Y-80530952D01*
X69547619Y-80578571D01*
X69500000Y-80673809D01*
X69500000Y-80911904D01*
X69547619Y-81007142D01*
X69595238Y-81054761D01*
X69690476Y-81102380D01*
X69976190Y-81102380D01*
X70071428Y-81054761D01*
X70119047Y-81007142D01*
X69214285Y-80102380D02*
X68880952Y-81102380D01*
X68547619Y-80102380D01*
X68309523Y-80102380D02*
X67690476Y-80102380D01*
X68023809Y-80483333D01*
X67880952Y-80483333D01*
X67785714Y-80530952D01*
X67738095Y-80578571D01*
X67690476Y-80673809D01*
X67690476Y-80911904D01*
X67738095Y-81007142D01*
X67785714Y-81054761D01*
X67880952Y-81102380D01*
X68166666Y-81102380D01*
X68261904Y-81054761D01*
X68309523Y-81007142D01*
X86642857Y-81054761D02*
X86500000Y-81102380D01*
X86261904Y-81102380D01*
X86166666Y-81054761D01*
X86119047Y-81007142D01*
X86071428Y-80911904D01*
X86071428Y-80816666D01*
X86119047Y-80721428D01*
X86166666Y-80673809D01*
X86261904Y-80626190D01*
X86452380Y-80578571D01*
X86547619Y-80530952D01*
X86595238Y-80483333D01*
X86642857Y-80388095D01*
X86642857Y-80292857D01*
X86595238Y-80197619D01*
X86547619Y-80150000D01*
X86452380Y-80102380D01*
X86214285Y-80102380D01*
X86071428Y-80150000D01*
X85642857Y-80578571D02*
X85309523Y-80578571D01*
X85166666Y-81102380D02*
X85642857Y-81102380D01*
X85642857Y-80102380D01*
X85166666Y-80102380D01*
X84261904Y-81102380D02*
X84738095Y-81102380D01*
X84738095Y-80102380D01*
D11*
X85764285Y-100300000D02*
X85878571Y-100242857D01*
X86050000Y-100242857D01*
X86221428Y-100300000D01*
X86335714Y-100414285D01*
X86392857Y-100528571D01*
X86450000Y-100757142D01*
X86450000Y-100928571D01*
X86392857Y-101157142D01*
X86335714Y-101271428D01*
X86221428Y-101385714D01*
X86050000Y-101442857D01*
X85935714Y-101442857D01*
X85764285Y-101385714D01*
X85707142Y-101328571D01*
X85707142Y-100928571D01*
X85935714Y-100928571D01*
X85192857Y-101442857D02*
X85192857Y-100242857D01*
X84507142Y-101442857D01*
X84507142Y-100242857D01*
X83935714Y-101442857D02*
X83935714Y-100242857D01*
X83650000Y-100242857D01*
X83478571Y-100300000D01*
X83364285Y-100414285D01*
X83307142Y-100528571D01*
X83250000Y-100757142D01*
X83250000Y-100928571D01*
X83307142Y-101157142D01*
X83364285Y-101271428D01*
X83478571Y-101385714D01*
X83650000Y-101442857D01*
X83935714Y-101442857D01*
D10*
X82452380Y-81007142D02*
X82500000Y-81054761D01*
X82642857Y-81102380D01*
X82738095Y-81102380D01*
X82880952Y-81054761D01*
X82976190Y-80959523D01*
X83023809Y-80864285D01*
X83071428Y-80673809D01*
X83071428Y-80530952D01*
X83023809Y-80340476D01*
X82976190Y-80245238D01*
X82880952Y-80150000D01*
X82738095Y-80102380D01*
X82642857Y-80102380D01*
X82500000Y-80150000D01*
X82452380Y-80197619D01*
X82023809Y-81102380D02*
X82023809Y-80102380D01*
X81547619Y-81102380D02*
X81547619Y-80102380D01*
X81166666Y-80102380D01*
X81071428Y-80150000D01*
X81023809Y-80197619D01*
X80976190Y-80292857D01*
X80976190Y-80435714D01*
X81023809Y-80530952D01*
X81071428Y-80578571D01*
X81166666Y-80626190D01*
X81547619Y-80626190D01*
X80357142Y-80102380D02*
X80166666Y-80102380D01*
X80071428Y-80150000D01*
X79976190Y-80245238D01*
X79928571Y-80435714D01*
X79928571Y-80769047D01*
X79976190Y-80959523D01*
X80071428Y-81054761D01*
X80166666Y-81102380D01*
X80357142Y-81102380D01*
X80452380Y-81054761D01*
X80547619Y-80959523D01*
X80595238Y-80769047D01*
X80595238Y-80435714D01*
X80547619Y-80245238D01*
X80452380Y-80150000D01*
X80357142Y-80102380D01*
M02*
