%TF.GenerationSoftware,KiCad,Pcbnew,6.0.0-d3dd2cf0fa~116~ubuntu21.10.1*%
%TF.CreationDate,2022-01-01T15:31:34+02:00*%
%TF.ProjectId,moca-hcho,6d6f6361-2d68-4636-986f-2e6b69636164,v1.0*%
%TF.SameCoordinates,Original*%
%TF.FileFunction,Paste,Top*%
%TF.FilePolarity,Positive*%
%FSLAX46Y46*%
G04 Gerber Fmt 4.6, Leading zero omitted, Abs format (unit mm)*
G04 Created by KiCad (PCBNEW 6.0.0-d3dd2cf0fa~116~ubuntu21.10.1) date 2022-01-01 15:31:34*
%MOMM*%
%LPD*%
G01*
G04 APERTURE LIST*
G04 Aperture macros list*
%AMRoundRect*
0 Rectangle with rounded corners*
0 $1 Rounding radius*
0 $2 $3 $4 $5 $6 $7 $8 $9 X,Y pos of 4 corners*
0 Add a 4 corners polygon primitive as box body*
4,1,4,$2,$3,$4,$5,$6,$7,$8,$9,$2,$3,0*
0 Add four circle primitives for the rounded corners*
1,1,$1+$1,$2,$3*
1,1,$1+$1,$4,$5*
1,1,$1+$1,$6,$7*
1,1,$1+$1,$8,$9*
0 Add four rect primitives between the rounded corners*
20,1,$1+$1,$2,$3,$4,$5,0*
20,1,$1+$1,$4,$5,$6,$7,0*
20,1,$1+$1,$6,$7,$8,$9,0*
20,1,$1+$1,$8,$9,$2,$3,0*%
G04 Aperture macros list end*
%ADD10RoundRect,0.250000X-0.325000X-0.650000X0.325000X-0.650000X0.325000X0.650000X-0.325000X0.650000X0*%
%ADD11RoundRect,0.250000X0.250000X0.475000X-0.250000X0.475000X-0.250000X-0.475000X0.250000X-0.475000X0*%
%ADD12RoundRect,0.150000X-0.587500X-0.150000X0.587500X-0.150000X0.587500X0.150000X-0.587500X0.150000X0*%
%ADD13RoundRect,0.250000X1.250000X0.550000X-1.250000X0.550000X-1.250000X-0.550000X1.250000X-0.550000X0*%
%ADD14RoundRect,0.175000X-0.575000X-0.175000X0.575000X-0.175000X0.575000X0.175000X-0.575000X0.175000X0*%
%ADD15C,0.600000*%
%ADD16RoundRect,0.250000X-0.262500X-0.450000X0.262500X-0.450000X0.262500X0.450000X-0.262500X0.450000X0*%
%ADD17R,1.100000X1.100000*%
%ADD18RoundRect,0.250000X-0.450000X0.262500X-0.450000X-0.262500X0.450000X-0.262500X0.450000X0.262500X0*%
%ADD19RoundRect,0.250000X0.650000X-0.325000X0.650000X0.325000X-0.650000X0.325000X-0.650000X-0.325000X0*%
%ADD20RoundRect,0.250000X0.475000X-0.250000X0.475000X0.250000X-0.475000X0.250000X-0.475000X-0.250000X0*%
%ADD21RoundRect,0.250000X0.262500X0.450000X-0.262500X0.450000X-0.262500X-0.450000X0.262500X-0.450000X0*%
%ADD22R,0.400000X0.650000*%
G04 APERTURE END LIST*
D10*
%TO.C,C5*%
X70050000Y-85800000D03*
X73000000Y-85800000D03*
%TD*%
D11*
%TO.C,C2*%
X74650000Y-104600000D03*
X72750000Y-104600000D03*
%TD*%
D12*
%TO.C,U2*%
X72525000Y-106450000D03*
X72525000Y-108350000D03*
X74400000Y-107400000D03*
%TD*%
D13*
%TO.C,C1*%
X75300000Y-97900000D03*
X70900000Y-97900000D03*
%TD*%
D14*
%TO.C,U1*%
X93000000Y-80100000D03*
X93000000Y-81200000D03*
X93000000Y-82300000D03*
X93000000Y-83400000D03*
X93000000Y-84500000D03*
X93000000Y-85600000D03*
X93000000Y-86700000D03*
X93000000Y-87800000D03*
X107000000Y-87800000D03*
X107000000Y-86700000D03*
X107000000Y-85600000D03*
X107000000Y-84500000D03*
X107000000Y-83400000D03*
X107000000Y-82300000D03*
X107000000Y-81200000D03*
X107000000Y-80100000D03*
D15*
X97750000Y-80900000D03*
X97750000Y-82100000D03*
X97750000Y-83300000D03*
X97750000Y-84500000D03*
X97750000Y-85700000D03*
X97750000Y-86900000D03*
X99250000Y-80900000D03*
X99250000Y-82100000D03*
X99250000Y-83300000D03*
X99250000Y-84500000D03*
X99250000Y-85700000D03*
X99250000Y-86900000D03*
X100750000Y-80900000D03*
X100750000Y-82100000D03*
X100750000Y-83300000D03*
X100750000Y-84500000D03*
X100750000Y-85700000D03*
X100750000Y-86900000D03*
X102250000Y-80900000D03*
X102250000Y-82100000D03*
X102250000Y-83300000D03*
X102250000Y-84500000D03*
X102250000Y-85700000D03*
X102250000Y-86900000D03*
%TD*%
D16*
%TO.C,R3*%
X74087500Y-88800000D03*
X75912500Y-88800000D03*
%TD*%
D17*
%TO.C,D2*%
X81500000Y-99000000D03*
X78700000Y-99000000D03*
%TD*%
D18*
%TO.C,R2*%
X88600000Y-87875000D03*
X88600000Y-89700000D03*
%TD*%
D12*
%TO.C,Q1*%
X78762500Y-94950000D03*
X78762500Y-96850000D03*
X80637500Y-95900000D03*
%TD*%
D19*
%TO.C,C4*%
X110000000Y-88750000D03*
X110000000Y-85800000D03*
%TD*%
D17*
%TO.C,D1*%
X78700000Y-92800000D03*
X81500000Y-92800000D03*
%TD*%
D20*
%TO.C,C3*%
X70362500Y-108350000D03*
X70362500Y-106450000D03*
%TD*%
D21*
%TO.C,R1*%
X76825000Y-92800000D03*
X75000000Y-92800000D03*
%TD*%
D22*
%TO.C,U3*%
X86650000Y-87750000D03*
X86000000Y-87750000D03*
X85350000Y-87750000D03*
X85350000Y-89650000D03*
X86650000Y-89650000D03*
%TD*%
M02*
