%TF.GenerationSoftware,KiCad,Pcbnew,6.0.0-d3dd2cf0fa~116~ubuntu21.10.1*%
%TF.CreationDate,2022-01-01T15:31:34+02:00*%
%TF.ProjectId,moca-hcho,6d6f6361-2d68-4636-986f-2e6b69636164,v1.0*%
%TF.SameCoordinates,Original*%
%TF.FileFunction,Copper,L2,Bot*%
%TF.FilePolarity,Positive*%
%FSLAX46Y46*%
G04 Gerber Fmt 4.6, Leading zero omitted, Abs format (unit mm)*
G04 Created by KiCad (PCBNEW 6.0.0-d3dd2cf0fa~116~ubuntu21.10.1) date 2022-01-01 15:31:34*
%MOMM*%
%LPD*%
G01*
G04 APERTURE LIST*
G04 Aperture macros list*
%AMRoundRect*
0 Rectangle with rounded corners*
0 $1 Rounding radius*
0 $2 $3 $4 $5 $6 $7 $8 $9 X,Y pos of 4 corners*
0 Add a 4 corners polygon primitive as box body*
4,1,4,$2,$3,$4,$5,$6,$7,$8,$9,$2,$3,0*
0 Add four circle primitives for the rounded corners*
1,1,$1+$1,$2,$3*
1,1,$1+$1,$4,$5*
1,1,$1+$1,$6,$7*
1,1,$1+$1,$8,$9*
0 Add four rect primitives between the rounded corners*
20,1,$1+$1,$2,$3,$4,$5,0*
20,1,$1+$1,$4,$5,$6,$7,0*
20,1,$1+$1,$6,$7,$8,$9,0*
20,1,$1+$1,$8,$9,$2,$3,0*%
G04 Aperture macros list end*
%TA.AperFunction,ComponentPad*%
%ADD10RoundRect,0.250000X-0.600000X-0.600000X0.600000X-0.600000X0.600000X0.600000X-0.600000X0.600000X0*%
%TD*%
%TA.AperFunction,ComponentPad*%
%ADD11C,1.700000*%
%TD*%
%TA.AperFunction,ComponentPad*%
%ADD12R,1.800000X1.800000*%
%TD*%
%TA.AperFunction,ComponentPad*%
%ADD13C,1.800000*%
%TD*%
%TA.AperFunction,ComponentPad*%
%ADD14RoundRect,0.250000X0.675000X-0.675000X0.675000X0.675000X-0.675000X0.675000X-0.675000X-0.675000X0*%
%TD*%
%TA.AperFunction,ComponentPad*%
%ADD15C,1.850000*%
%TD*%
%TA.AperFunction,ComponentPad*%
%ADD16C,4.700000*%
%TD*%
%TA.AperFunction,ViaPad*%
%ADD17C,0.800000*%
%TD*%
%TA.AperFunction,Conductor*%
%ADD18C,0.250000*%
%TD*%
G04 APERTURE END LIST*
D10*
%TO.P,J2,1,Pin_1*%
%TO.N,+3V3*%
X69500000Y-82500000D03*
D11*
%TO.P,J2,2,Pin_2*%
%TO.N,GND*%
X73500000Y-82500000D03*
%TO.P,J2,3,Pin_3*%
%TO.N,/SFA30_COPI*%
X77500000Y-82500000D03*
%TO.P,J2,4,Pin_4*%
%TO.N,/SFA30_CIPO*%
X81500000Y-82500000D03*
%TO.P,J2,5,Pin_5*%
%TO.N,unconnected-(J2-Pad5)*%
X85500000Y-82500000D03*
%TD*%
D12*
%TO.P,D3,1,K*%
%TO.N,Net-(D3-Pad1)*%
X70500000Y-90800000D03*
D13*
%TO.P,D3,2,A*%
%TO.N,/VIN*%
X70500000Y-93340000D03*
%TD*%
D14*
%TO.P,J1,1,Pin_1*%
%TO.N,GND*%
X84810000Y-98700000D03*
D15*
%TO.P,J1,2,Pin_2*%
%TO.N,Net-(D1-Pad2)*%
X84810000Y-94500000D03*
%TD*%
D16*
%TO.P,H5,1,1*%
%TO.N,GND*%
X81000000Y-124000000D03*
%TD*%
%TO.P,H6,1,1*%
%TO.N,GND*%
X100000000Y-106000000D03*
%TD*%
D17*
%TO.N,GND*%
X122100000Y-82400000D03*
X110000000Y-84500000D03*
X103400000Y-80900000D03*
X71562500Y-104600000D03*
X72762500Y-103200000D03*
X73800000Y-92800000D03*
X123400000Y-87800000D03*
X68962500Y-106400000D03*
X96600000Y-80900000D03*
X85300000Y-86700000D03*
X68700000Y-97900000D03*
X88600000Y-90900000D03*
X111600000Y-85800000D03*
X70362500Y-105300000D03*
%TO.N,/RESET*%
X108600000Y-82300000D03*
X113900000Y-84400000D03*
%TO.N,/SWDCLK*%
X121300000Y-81200000D03*
X116100000Y-81200000D03*
%TD*%
D18*
%TO.N,/RESET*%
X113900000Y-84400000D02*
X111800000Y-82300000D01*
X111800000Y-82300000D02*
X108600000Y-82300000D01*
%TO.N,/SWDCLK*%
X116100000Y-81200000D02*
X121300000Y-81200000D01*
%TD*%
%TA.AperFunction,Conductor*%
%TO.N,GND*%
G36*
X71192397Y-71805257D02*
G01*
X71244866Y-71810592D01*
X71555298Y-71842160D01*
X71565195Y-71843677D01*
X71922496Y-71917104D01*
X71932194Y-71919615D01*
X72280248Y-72028817D01*
X72289636Y-72032294D01*
X72624851Y-72176146D01*
X72633846Y-72180559D01*
X72737326Y-72237994D01*
X72952777Y-72357580D01*
X72961284Y-72362881D01*
X73260683Y-72571270D01*
X73268599Y-72577398D01*
X73545372Y-72815000D01*
X73552627Y-72821895D01*
X73803947Y-73086284D01*
X73810477Y-73093890D01*
X74033761Y-73382350D01*
X74039478Y-73390565D01*
X74232425Y-73700120D01*
X74237290Y-73708885D01*
X74392617Y-74025537D01*
X74397937Y-74036383D01*
X74401882Y-74045575D01*
X74528574Y-74387656D01*
X74531571Y-74397207D01*
X74618166Y-74731652D01*
X74623005Y-74750343D01*
X74625023Y-74760167D01*
X74680255Y-75120710D01*
X74681270Y-75130687D01*
X74698399Y-75468437D01*
X74697022Y-75490640D01*
X74695372Y-75500000D01*
X74696876Y-75508530D01*
X74698496Y-75517717D01*
X74700000Y-75534908D01*
X74700000Y-79244383D01*
X74699527Y-79254045D01*
X74698802Y-79261441D01*
X74696260Y-79270218D01*
X74697048Y-79279319D01*
X74697048Y-79279321D01*
X74699631Y-79309141D01*
X74700000Y-79317683D01*
X74700000Y-79327905D01*
X74700834Y-79332383D01*
X74700835Y-79332394D01*
X74701461Y-79335754D01*
X74702766Y-79345336D01*
X74705903Y-79381560D01*
X74709917Y-79389771D01*
X74711485Y-79395425D01*
X74713592Y-79400884D01*
X74715265Y-79409870D01*
X74720062Y-79417652D01*
X74734352Y-79440835D01*
X74739018Y-79449306D01*
X74749028Y-79469783D01*
X74754983Y-79481966D01*
X74761682Y-79488180D01*
X74765175Y-79492883D01*
X74769114Y-79497227D01*
X74773909Y-79505007D01*
X74781184Y-79510539D01*
X74802855Y-79527018D01*
X74810259Y-79533242D01*
X74836917Y-79557971D01*
X74845406Y-79561358D01*
X74850357Y-79564488D01*
X74855592Y-79567121D01*
X74862869Y-79572654D01*
X74888023Y-79579938D01*
X74897789Y-79582766D01*
X74906938Y-79585907D01*
X74940720Y-79599385D01*
X74946993Y-79600000D01*
X74947931Y-79600000D01*
X74952300Y-79600732D01*
X74952342Y-79600306D01*
X74961441Y-79601198D01*
X74970218Y-79603740D01*
X74979319Y-79602952D01*
X74979321Y-79602952D01*
X75009141Y-79600369D01*
X75017683Y-79600000D01*
X124944383Y-79600000D01*
X124954045Y-79600473D01*
X124961441Y-79601198D01*
X124970218Y-79603740D01*
X124979319Y-79602952D01*
X124979321Y-79602952D01*
X125009141Y-79600369D01*
X125017683Y-79600000D01*
X125027905Y-79600000D01*
X125032383Y-79599166D01*
X125032394Y-79599165D01*
X125035754Y-79598539D01*
X125045336Y-79597234D01*
X125052138Y-79596645D01*
X125072454Y-79594886D01*
X125072456Y-79594885D01*
X125081560Y-79594097D01*
X125089771Y-79590083D01*
X125095425Y-79588515D01*
X125100884Y-79586408D01*
X125109870Y-79584735D01*
X125140837Y-79565647D01*
X125149306Y-79560982D01*
X125173753Y-79549032D01*
X125173754Y-79549031D01*
X125181966Y-79545017D01*
X125188180Y-79538318D01*
X125192883Y-79534825D01*
X125197227Y-79530886D01*
X125205007Y-79526091D01*
X125227019Y-79497144D01*
X125233242Y-79489741D01*
X125251756Y-79469783D01*
X125251756Y-79469782D01*
X125257971Y-79463083D01*
X125261358Y-79454594D01*
X125264488Y-79449643D01*
X125267121Y-79444408D01*
X125272654Y-79437131D01*
X125282766Y-79402211D01*
X125285907Y-79393062D01*
X125296797Y-79365767D01*
X125296797Y-79365766D01*
X125299385Y-79359280D01*
X125300000Y-79353007D01*
X125300000Y-79352069D01*
X125300732Y-79347700D01*
X125300306Y-79347658D01*
X125301198Y-79338559D01*
X125303740Y-79329782D01*
X125302322Y-79313402D01*
X125300369Y-79290859D01*
X125300000Y-79282317D01*
X125300000Y-75554288D01*
X127445404Y-75554288D01*
X127445861Y-75558236D01*
X127445861Y-75558241D01*
X127461680Y-75694961D01*
X127474081Y-75802140D01*
X127542017Y-76042219D01*
X127543695Y-76045818D01*
X127543696Y-76045820D01*
X127645780Y-76264742D01*
X127645783Y-76264747D01*
X127647462Y-76268348D01*
X127649697Y-76271637D01*
X127649700Y-76271642D01*
X127726285Y-76384332D01*
X127787706Y-76474710D01*
X127959138Y-76655994D01*
X128157349Y-76807538D01*
X128160852Y-76809416D01*
X128160853Y-76809417D01*
X128292646Y-76880084D01*
X128377239Y-76925443D01*
X128613152Y-77006674D01*
X128801500Y-77039207D01*
X128855942Y-77048611D01*
X128855944Y-77048611D01*
X128859017Y-77049142D01*
X128881989Y-77050185D01*
X128887818Y-77050450D01*
X128887824Y-77050450D01*
X128888922Y-77050500D01*
X129062691Y-77050500D01*
X129064665Y-77050341D01*
X129064669Y-77050341D01*
X129244742Y-77035853D01*
X129244747Y-77035852D01*
X129248702Y-77035534D01*
X129252562Y-77034586D01*
X129487140Y-76976968D01*
X129487145Y-76976966D01*
X129491006Y-76976018D01*
X129494667Y-76974464D01*
X129494670Y-76974463D01*
X129717014Y-76880084D01*
X129717016Y-76880083D01*
X129720677Y-76878529D01*
X129931808Y-76745573D01*
X129934788Y-76742946D01*
X129934793Y-76742942D01*
X130115982Y-76583202D01*
X130115983Y-76583201D01*
X130118965Y-76580572D01*
X130277334Y-76387770D01*
X130402840Y-76172128D01*
X130492255Y-75939195D01*
X130543278Y-75694961D01*
X130554596Y-75445712D01*
X130538781Y-75309018D01*
X130526376Y-75201807D01*
X130526375Y-75201803D01*
X130525919Y-75197860D01*
X130457983Y-74957781D01*
X130397406Y-74827872D01*
X130354220Y-74735258D01*
X130354217Y-74735253D01*
X130352538Y-74731652D01*
X130350303Y-74728363D01*
X130350300Y-74728358D01*
X130214530Y-74528580D01*
X130214529Y-74528579D01*
X130212294Y-74525290D01*
X130040862Y-74344006D01*
X129842651Y-74192462D01*
X129839147Y-74190583D01*
X129626260Y-74076433D01*
X129626258Y-74076432D01*
X129622761Y-74074557D01*
X129386848Y-73993326D01*
X129198500Y-73960793D01*
X129144058Y-73951389D01*
X129144056Y-73951389D01*
X129140983Y-73950858D01*
X129118011Y-73949815D01*
X129112182Y-73949550D01*
X129112176Y-73949550D01*
X129111078Y-73949500D01*
X128937309Y-73949500D01*
X128935335Y-73949659D01*
X128935331Y-73949659D01*
X128755258Y-73964147D01*
X128755253Y-73964148D01*
X128751298Y-73964466D01*
X128747439Y-73965414D01*
X128747438Y-73965414D01*
X128512860Y-74023032D01*
X128512855Y-74023034D01*
X128508994Y-74023982D01*
X128505333Y-74025536D01*
X128505330Y-74025537D01*
X128389846Y-74074557D01*
X128279323Y-74121471D01*
X128068192Y-74254427D01*
X128065212Y-74257054D01*
X128065207Y-74257058D01*
X127911742Y-74392356D01*
X127881035Y-74419428D01*
X127722666Y-74612230D01*
X127720665Y-74615668D01*
X127642283Y-74750343D01*
X127597160Y-74827872D01*
X127507745Y-75060805D01*
X127456722Y-75305039D01*
X127445404Y-75554288D01*
X125300000Y-75554288D01*
X125300000Y-75534908D01*
X125301504Y-75517717D01*
X125303124Y-75508530D01*
X125304628Y-75500000D01*
X125302978Y-75490640D01*
X125301601Y-75468437D01*
X125318730Y-75130687D01*
X125319745Y-75120710D01*
X125374977Y-74760167D01*
X125376995Y-74750343D01*
X125381835Y-74731652D01*
X125468429Y-74397207D01*
X125471426Y-74387656D01*
X125598118Y-74045575D01*
X125602063Y-74036383D01*
X125607384Y-74025537D01*
X125762710Y-73708885D01*
X125767575Y-73700120D01*
X125960522Y-73390565D01*
X125966239Y-73382350D01*
X126189523Y-73093890D01*
X126196053Y-73086284D01*
X126447373Y-72821895D01*
X126454628Y-72815000D01*
X126731401Y-72577398D01*
X126739317Y-72571270D01*
X127038716Y-72362881D01*
X127047223Y-72357580D01*
X127262674Y-72237994D01*
X127366154Y-72180559D01*
X127375149Y-72176146D01*
X127710364Y-72032294D01*
X127719752Y-72028817D01*
X128067806Y-71919615D01*
X128077504Y-71917104D01*
X128434805Y-71843677D01*
X128444702Y-71842160D01*
X128755134Y-71810592D01*
X128807603Y-71805257D01*
X128817618Y-71804749D01*
X129182382Y-71804749D01*
X129192397Y-71805257D01*
X129244866Y-71810592D01*
X129555298Y-71842160D01*
X129565195Y-71843677D01*
X129922496Y-71917104D01*
X129932194Y-71919615D01*
X130280248Y-72028817D01*
X130289636Y-72032294D01*
X130624851Y-72176146D01*
X130633846Y-72180559D01*
X130737326Y-72237994D01*
X130952777Y-72357580D01*
X130961284Y-72362881D01*
X131260683Y-72571270D01*
X131268599Y-72577398D01*
X131545372Y-72815000D01*
X131552627Y-72821895D01*
X131803947Y-73086284D01*
X131810477Y-73093890D01*
X132033761Y-73382350D01*
X132039478Y-73390565D01*
X132232425Y-73700120D01*
X132237290Y-73708885D01*
X132392617Y-74025537D01*
X132397937Y-74036383D01*
X132401882Y-74045575D01*
X132528574Y-74387656D01*
X132531571Y-74397207D01*
X132618166Y-74731652D01*
X132623005Y-74750343D01*
X132625023Y-74760167D01*
X132680255Y-75120710D01*
X132681270Y-75130687D01*
X132698399Y-75468437D01*
X132697022Y-75490640D01*
X132695372Y-75500000D01*
X132696876Y-75508530D01*
X132698496Y-75517717D01*
X132700000Y-75534908D01*
X132700000Y-124465092D01*
X132698496Y-124482282D01*
X132695372Y-124500000D01*
X132696876Y-124508530D01*
X132696876Y-124508532D01*
X132697022Y-124509360D01*
X132698399Y-124531563D01*
X132681270Y-124869313D01*
X132680255Y-124879290D01*
X132627057Y-125226557D01*
X132625023Y-125239833D01*
X132623006Y-125249652D01*
X132612309Y-125290967D01*
X132531571Y-125602793D01*
X132528574Y-125612344D01*
X132401882Y-125954425D01*
X132397940Y-125963611D01*
X132260319Y-126244168D01*
X132237292Y-126291112D01*
X132232426Y-126299878D01*
X132039478Y-126609435D01*
X132033761Y-126617650D01*
X131918871Y-126766076D01*
X131810479Y-126906107D01*
X131803949Y-126913714D01*
X131552627Y-127178105D01*
X131545372Y-127185000D01*
X131345169Y-127356869D01*
X131268600Y-127422601D01*
X131260683Y-127428730D01*
X131048466Y-127576438D01*
X130961288Y-127637116D01*
X130952777Y-127642420D01*
X130739846Y-127760607D01*
X130633846Y-127819441D01*
X130624851Y-127823854D01*
X130289636Y-127967706D01*
X130280248Y-127971183D01*
X129932194Y-128080385D01*
X129922496Y-128082896D01*
X129565195Y-128156323D01*
X129555298Y-128157840D01*
X129244866Y-128189408D01*
X129192397Y-128194743D01*
X129182382Y-128195251D01*
X128817618Y-128195251D01*
X128807603Y-128194743D01*
X128755134Y-128189408D01*
X128444702Y-128157840D01*
X128434805Y-128156323D01*
X128077504Y-128082896D01*
X128067806Y-128080385D01*
X127719752Y-127971183D01*
X127710364Y-127967706D01*
X127375149Y-127823854D01*
X127366154Y-127819441D01*
X127260154Y-127760607D01*
X127047223Y-127642420D01*
X127038712Y-127637116D01*
X126951534Y-127576438D01*
X126739317Y-127428730D01*
X126731400Y-127422601D01*
X126654831Y-127356869D01*
X126454628Y-127185000D01*
X126447373Y-127178105D01*
X126196051Y-126913714D01*
X126189521Y-126906107D01*
X126081129Y-126766076D01*
X125966239Y-126617650D01*
X125960522Y-126609435D01*
X125767574Y-126299878D01*
X125762708Y-126291112D01*
X125739681Y-126244168D01*
X125602060Y-125963611D01*
X125598118Y-125954425D01*
X125471426Y-125612344D01*
X125468429Y-125602793D01*
X125387691Y-125290967D01*
X125376994Y-125249652D01*
X125374977Y-125239833D01*
X125372944Y-125226557D01*
X125319745Y-124879290D01*
X125318730Y-124869313D01*
X125302753Y-124554288D01*
X127445404Y-124554288D01*
X127445861Y-124558236D01*
X127445861Y-124558241D01*
X127461680Y-124694961D01*
X127474081Y-124802140D01*
X127542017Y-125042219D01*
X127543695Y-125045818D01*
X127543696Y-125045820D01*
X127645780Y-125264742D01*
X127645783Y-125264747D01*
X127647462Y-125268348D01*
X127649697Y-125271637D01*
X127649700Y-125271642D01*
X127726285Y-125384332D01*
X127787706Y-125474710D01*
X127959138Y-125655994D01*
X128157349Y-125807538D01*
X128160852Y-125809416D01*
X128160853Y-125809417D01*
X128359496Y-125915929D01*
X128377239Y-125925443D01*
X128613152Y-126006674D01*
X128801500Y-126039207D01*
X128855942Y-126048611D01*
X128855944Y-126048611D01*
X128859017Y-126049142D01*
X128881989Y-126050185D01*
X128887818Y-126050450D01*
X128887824Y-126050450D01*
X128888922Y-126050500D01*
X129062691Y-126050500D01*
X129064665Y-126050341D01*
X129064669Y-126050341D01*
X129244742Y-126035853D01*
X129244747Y-126035852D01*
X129248702Y-126035534D01*
X129252562Y-126034586D01*
X129487140Y-125976968D01*
X129487145Y-125976966D01*
X129491006Y-125976018D01*
X129494667Y-125974464D01*
X129494670Y-125974463D01*
X129717014Y-125880084D01*
X129717016Y-125880083D01*
X129720677Y-125878529D01*
X129931808Y-125745573D01*
X129934788Y-125742946D01*
X129934793Y-125742942D01*
X130115982Y-125583202D01*
X130115983Y-125583201D01*
X130118965Y-125580572D01*
X130277334Y-125387770D01*
X130279335Y-125384332D01*
X130400840Y-125175565D01*
X130400842Y-125175561D01*
X130402840Y-125172128D01*
X130492255Y-124939195D01*
X130543278Y-124694961D01*
X130554596Y-124445712D01*
X130538781Y-124309018D01*
X130526376Y-124201807D01*
X130526375Y-124201803D01*
X130525919Y-124197860D01*
X130457983Y-123957781D01*
X130397406Y-123827872D01*
X130354220Y-123735258D01*
X130354217Y-123735253D01*
X130352538Y-123731652D01*
X130350303Y-123728363D01*
X130350300Y-123728358D01*
X130214530Y-123528580D01*
X130214529Y-123528579D01*
X130212294Y-123525290D01*
X130040862Y-123344006D01*
X129842651Y-123192462D01*
X129839147Y-123190583D01*
X129626260Y-123076433D01*
X129626258Y-123076432D01*
X129622761Y-123074557D01*
X129386848Y-122993326D01*
X129198500Y-122960793D01*
X129144058Y-122951389D01*
X129144056Y-122951389D01*
X129140983Y-122950858D01*
X129118011Y-122949815D01*
X129112182Y-122949550D01*
X129112176Y-122949550D01*
X129111078Y-122949500D01*
X128937309Y-122949500D01*
X128935335Y-122949659D01*
X128935331Y-122949659D01*
X128755258Y-122964147D01*
X128755253Y-122964148D01*
X128751298Y-122964466D01*
X128747439Y-122965414D01*
X128747438Y-122965414D01*
X128512860Y-123023032D01*
X128512855Y-123023034D01*
X128508994Y-123023982D01*
X128505333Y-123025536D01*
X128505330Y-123025537D01*
X128389846Y-123074557D01*
X128279323Y-123121471D01*
X128068192Y-123254427D01*
X128065212Y-123257054D01*
X128065207Y-123257058D01*
X127884018Y-123416798D01*
X127881035Y-123419428D01*
X127722666Y-123612230D01*
X127597160Y-123827872D01*
X127507745Y-124060805D01*
X127456722Y-124305039D01*
X127445404Y-124554288D01*
X125302753Y-124554288D01*
X125301601Y-124531563D01*
X125302978Y-124509360D01*
X125303124Y-124508532D01*
X125303124Y-124508530D01*
X125304628Y-124500000D01*
X125301504Y-124482282D01*
X125300000Y-124465092D01*
X125300000Y-103055617D01*
X125300473Y-103045955D01*
X125301198Y-103038559D01*
X125303740Y-103029782D01*
X125302322Y-103013402D01*
X125300369Y-102990859D01*
X125300000Y-102982317D01*
X125300000Y-102972095D01*
X125299166Y-102967617D01*
X125299165Y-102967606D01*
X125298539Y-102964246D01*
X125297234Y-102954662D01*
X125297030Y-102952300D01*
X125294097Y-102918440D01*
X125290083Y-102910229D01*
X125288515Y-102904575D01*
X125286408Y-102899116D01*
X125284735Y-102890130D01*
X125265647Y-102859163D01*
X125260982Y-102850694D01*
X125249032Y-102826247D01*
X125249031Y-102826246D01*
X125245017Y-102818034D01*
X125238318Y-102811820D01*
X125234825Y-102807117D01*
X125230886Y-102802773D01*
X125226091Y-102794993D01*
X125197144Y-102772981D01*
X125189741Y-102766758D01*
X125169783Y-102748244D01*
X125169782Y-102748244D01*
X125163083Y-102742029D01*
X125154594Y-102738642D01*
X125149643Y-102735512D01*
X125144408Y-102732879D01*
X125137131Y-102727346D01*
X125102211Y-102717234D01*
X125093062Y-102714093D01*
X125065767Y-102703203D01*
X125065766Y-102703203D01*
X125059280Y-102700615D01*
X125053007Y-102700000D01*
X125052069Y-102700000D01*
X125047700Y-102699268D01*
X125047658Y-102699694D01*
X125038559Y-102698802D01*
X125029782Y-102696260D01*
X125020681Y-102697048D01*
X125020679Y-102697048D01*
X124990859Y-102699631D01*
X124982317Y-102700000D01*
X103055617Y-102700000D01*
X103045955Y-102699527D01*
X103038559Y-102698802D01*
X103029782Y-102696260D01*
X103020681Y-102697048D01*
X103020679Y-102697048D01*
X102990859Y-102699631D01*
X102982317Y-102700000D01*
X102972095Y-102700000D01*
X102967617Y-102700834D01*
X102967606Y-102700835D01*
X102964246Y-102701461D01*
X102954664Y-102702766D01*
X102949615Y-102703203D01*
X102927546Y-102705114D01*
X102927544Y-102705115D01*
X102918440Y-102705903D01*
X102910229Y-102709917D01*
X102904575Y-102711485D01*
X102899116Y-102713592D01*
X102890130Y-102715265D01*
X102882347Y-102720062D01*
X102882348Y-102720062D01*
X102859165Y-102734352D01*
X102850694Y-102739018D01*
X102826247Y-102750968D01*
X102826246Y-102750969D01*
X102818034Y-102754983D01*
X102811820Y-102761682D01*
X102807117Y-102765175D01*
X102802773Y-102769114D01*
X102794993Y-102773909D01*
X102789461Y-102781184D01*
X102772982Y-102802855D01*
X102766758Y-102810259D01*
X102742029Y-102836917D01*
X102738642Y-102845406D01*
X102735512Y-102850357D01*
X102732879Y-102855592D01*
X102727346Y-102862869D01*
X102724804Y-102871648D01*
X102717234Y-102897789D01*
X102714093Y-102906938D01*
X102700615Y-102940720D01*
X102700000Y-102946993D01*
X102700000Y-102947931D01*
X102699268Y-102952300D01*
X102699694Y-102952342D01*
X102698802Y-102961441D01*
X102696260Y-102970218D01*
X102697048Y-102979319D01*
X102697048Y-102979321D01*
X102699631Y-103009141D01*
X102700000Y-103017683D01*
X102700000Y-108601000D01*
X102681093Y-108659191D01*
X102631593Y-108695155D01*
X102601000Y-108700000D01*
X85055617Y-108700000D01*
X85045955Y-108699527D01*
X85038559Y-108698802D01*
X85029782Y-108696260D01*
X85020681Y-108697048D01*
X85020679Y-108697048D01*
X84990859Y-108699631D01*
X84982317Y-108700000D01*
X84972095Y-108700000D01*
X84967617Y-108700834D01*
X84967606Y-108700835D01*
X84964246Y-108701461D01*
X84954664Y-108702766D01*
X84947862Y-108703355D01*
X84927546Y-108705114D01*
X84927544Y-108705115D01*
X84918440Y-108705903D01*
X84910229Y-108709917D01*
X84904575Y-108711485D01*
X84899116Y-108713592D01*
X84890130Y-108715265D01*
X84882347Y-108720062D01*
X84882348Y-108720062D01*
X84859165Y-108734352D01*
X84850694Y-108739018D01*
X84826247Y-108750968D01*
X84826246Y-108750969D01*
X84818034Y-108754983D01*
X84811820Y-108761682D01*
X84807117Y-108765175D01*
X84802773Y-108769114D01*
X84794993Y-108773909D01*
X84789461Y-108781184D01*
X84772982Y-108802855D01*
X84766758Y-108810259D01*
X84742029Y-108836917D01*
X84738642Y-108845406D01*
X84735512Y-108850357D01*
X84732879Y-108855592D01*
X84727346Y-108862869D01*
X84724804Y-108871648D01*
X84717234Y-108897789D01*
X84714093Y-108906938D01*
X84700615Y-108940720D01*
X84700000Y-108946993D01*
X84700000Y-108947931D01*
X84699268Y-108952300D01*
X84699694Y-108952342D01*
X84698802Y-108961441D01*
X84696260Y-108970218D01*
X84697048Y-108979319D01*
X84697048Y-108979321D01*
X84699631Y-109009141D01*
X84700000Y-109017683D01*
X84700000Y-124465092D01*
X84698496Y-124482282D01*
X84695372Y-124500000D01*
X84696876Y-124508529D01*
X84696876Y-124508532D01*
X84697062Y-124509587D01*
X84698446Y-124531632D01*
X84697333Y-124554288D01*
X84685157Y-124802140D01*
X84682422Y-124857803D01*
X84681470Y-124867467D01*
X84670831Y-124939195D01*
X84629619Y-125217028D01*
X84627723Y-125226557D01*
X84541861Y-125569333D01*
X84539041Y-125578630D01*
X84419992Y-125911350D01*
X84416274Y-125920326D01*
X84265187Y-126239774D01*
X84260607Y-126248342D01*
X84214921Y-126324565D01*
X84078935Y-126551444D01*
X84073543Y-126559513D01*
X83863032Y-126843353D01*
X83856869Y-126850863D01*
X83619561Y-127112691D01*
X83612691Y-127119561D01*
X83350863Y-127356869D01*
X83343353Y-127363032D01*
X83059513Y-127573543D01*
X83051444Y-127578935D01*
X82954375Y-127637116D01*
X82748342Y-127760607D01*
X82739774Y-127765187D01*
X82420326Y-127916274D01*
X82411350Y-127919992D01*
X82078630Y-128039041D01*
X82069333Y-128041861D01*
X81726557Y-128127723D01*
X81717030Y-128129619D01*
X81367467Y-128181470D01*
X81357808Y-128182422D01*
X81249778Y-128187729D01*
X81031632Y-128198446D01*
X81009587Y-128197062D01*
X81008532Y-128196876D01*
X81008529Y-128196876D01*
X81000000Y-128195372D01*
X80982567Y-128198446D01*
X80982283Y-128198496D01*
X80965092Y-128200000D01*
X71034908Y-128200000D01*
X71017717Y-128198496D01*
X71017434Y-128198446D01*
X71000000Y-128195372D01*
X70991471Y-128196876D01*
X70991468Y-128196876D01*
X70990413Y-128197062D01*
X70968368Y-128198446D01*
X70750222Y-128187729D01*
X70642192Y-128182422D01*
X70632533Y-128181470D01*
X70282970Y-128129619D01*
X70273443Y-128127723D01*
X69930667Y-128041861D01*
X69921370Y-128039041D01*
X69588650Y-127919992D01*
X69579674Y-127916274D01*
X69260226Y-127765187D01*
X69251658Y-127760607D01*
X69045625Y-127637116D01*
X68948556Y-127578935D01*
X68940487Y-127573543D01*
X68656647Y-127363032D01*
X68649137Y-127356869D01*
X68387309Y-127119561D01*
X68380439Y-127112691D01*
X68143131Y-126850863D01*
X68136968Y-126843353D01*
X67926457Y-126559513D01*
X67921065Y-126551444D01*
X67785079Y-126324565D01*
X67739393Y-126248342D01*
X67734813Y-126239774D01*
X67583726Y-125920326D01*
X67580008Y-125911350D01*
X67460959Y-125578630D01*
X67458139Y-125569333D01*
X67372277Y-125226557D01*
X67370381Y-125217028D01*
X67329169Y-124939195D01*
X67318530Y-124867467D01*
X67317578Y-124857803D01*
X67314844Y-124802140D01*
X67302667Y-124554288D01*
X69445404Y-124554288D01*
X69445861Y-124558236D01*
X69445861Y-124558241D01*
X69461680Y-124694961D01*
X69474081Y-124802140D01*
X69542017Y-125042219D01*
X69543695Y-125045818D01*
X69543696Y-125045820D01*
X69645780Y-125264742D01*
X69645783Y-125264747D01*
X69647462Y-125268348D01*
X69649697Y-125271637D01*
X69649700Y-125271642D01*
X69726285Y-125384332D01*
X69787706Y-125474710D01*
X69959138Y-125655994D01*
X70157349Y-125807538D01*
X70160852Y-125809416D01*
X70160853Y-125809417D01*
X70359496Y-125915929D01*
X70377239Y-125925443D01*
X70613152Y-126006674D01*
X70801500Y-126039207D01*
X70855942Y-126048611D01*
X70855944Y-126048611D01*
X70859017Y-126049142D01*
X70881989Y-126050185D01*
X70887818Y-126050450D01*
X70887824Y-126050450D01*
X70888922Y-126050500D01*
X71062691Y-126050500D01*
X71064665Y-126050341D01*
X71064669Y-126050341D01*
X71244742Y-126035853D01*
X71244747Y-126035852D01*
X71248702Y-126035534D01*
X71252562Y-126034586D01*
X71487140Y-125976968D01*
X71487145Y-125976966D01*
X71491006Y-125976018D01*
X71494667Y-125974464D01*
X71494670Y-125974463D01*
X71717014Y-125880084D01*
X71717016Y-125880083D01*
X71720677Y-125878529D01*
X71931808Y-125745573D01*
X71934788Y-125742946D01*
X71934793Y-125742942D01*
X72115982Y-125583202D01*
X72115983Y-125583201D01*
X72118965Y-125580572D01*
X72277334Y-125387770D01*
X72279335Y-125384332D01*
X72400840Y-125175565D01*
X72400842Y-125175561D01*
X72402840Y-125172128D01*
X72492255Y-124939195D01*
X72543278Y-124694961D01*
X72554596Y-124445712D01*
X72538781Y-124309018D01*
X72526376Y-124201807D01*
X72526375Y-124201803D01*
X72525919Y-124197860D01*
X72457983Y-123957781D01*
X72397406Y-123827872D01*
X72354220Y-123735258D01*
X72354217Y-123735253D01*
X72352538Y-123731652D01*
X72350303Y-123728363D01*
X72350300Y-123728358D01*
X72214530Y-123528580D01*
X72214529Y-123528579D01*
X72212294Y-123525290D01*
X72040862Y-123344006D01*
X71842651Y-123192462D01*
X71839147Y-123190583D01*
X71626260Y-123076433D01*
X71626258Y-123076432D01*
X71622761Y-123074557D01*
X71386848Y-122993326D01*
X71198500Y-122960793D01*
X71144058Y-122951389D01*
X71144056Y-122951389D01*
X71140983Y-122950858D01*
X71118011Y-122949815D01*
X71112182Y-122949550D01*
X71112176Y-122949550D01*
X71111078Y-122949500D01*
X70937309Y-122949500D01*
X70935335Y-122949659D01*
X70935331Y-122949659D01*
X70755258Y-122964147D01*
X70755253Y-122964148D01*
X70751298Y-122964466D01*
X70747439Y-122965414D01*
X70747438Y-122965414D01*
X70512860Y-123023032D01*
X70512855Y-123023034D01*
X70508994Y-123023982D01*
X70505333Y-123025536D01*
X70505330Y-123025537D01*
X70389846Y-123074557D01*
X70279323Y-123121471D01*
X70068192Y-123254427D01*
X70065212Y-123257054D01*
X70065207Y-123257058D01*
X69884018Y-123416798D01*
X69881035Y-123419428D01*
X69722666Y-123612230D01*
X69597160Y-123827872D01*
X69507745Y-124060805D01*
X69456722Y-124305039D01*
X69445404Y-124554288D01*
X67302667Y-124554288D01*
X67301554Y-124531632D01*
X67302938Y-124509587D01*
X67303124Y-124508532D01*
X67303124Y-124508529D01*
X67304628Y-124500000D01*
X67301504Y-124482282D01*
X67300000Y-124465092D01*
X67300000Y-98633789D01*
X93605996Y-98633789D01*
X93614913Y-98871295D01*
X93615773Y-98875395D01*
X93615774Y-98875401D01*
X93641430Y-98997674D01*
X93663719Y-99103904D01*
X93751020Y-99324963D01*
X93753190Y-99328539D01*
X93753192Y-99328543D01*
X93800566Y-99406612D01*
X93874319Y-99528153D01*
X93877069Y-99531322D01*
X94027343Y-99704499D01*
X94027347Y-99704503D01*
X94030090Y-99707664D01*
X94213880Y-99858362D01*
X94420433Y-99975939D01*
X94643844Y-100057034D01*
X94693194Y-100065958D01*
X94874521Y-100098747D01*
X94874526Y-100098748D01*
X94877725Y-100099326D01*
X94897322Y-100100250D01*
X94901472Y-100100446D01*
X94901476Y-100100446D01*
X94902619Y-100100500D01*
X95069680Y-100100500D01*
X95071763Y-100100323D01*
X95071769Y-100100323D01*
X95242652Y-100085823D01*
X95242653Y-100085823D01*
X95246823Y-100085469D01*
X95250873Y-100084418D01*
X95250878Y-100084417D01*
X95472818Y-100026813D01*
X95472821Y-100026812D01*
X95476874Y-100025760D01*
X95534059Y-100000000D01*
X97695065Y-100000000D01*
X97695277Y-100003234D01*
X97701649Y-100100446D01*
X97714784Y-100300854D01*
X97773604Y-100596561D01*
X97870518Y-100882060D01*
X98003868Y-101152467D01*
X98171372Y-101403156D01*
X98370165Y-101629835D01*
X98596844Y-101828628D01*
X98847532Y-101996132D01*
X99117940Y-102129482D01*
X99121009Y-102130524D01*
X99121012Y-102130525D01*
X99192097Y-102154655D01*
X99403439Y-102226396D01*
X99699146Y-102285216D01*
X99702368Y-102285427D01*
X99702374Y-102285428D01*
X99996766Y-102304723D01*
X100000000Y-102304935D01*
X100003234Y-102304723D01*
X100297626Y-102285428D01*
X100297632Y-102285427D01*
X100300854Y-102285216D01*
X100596561Y-102226396D01*
X100807903Y-102154655D01*
X100878988Y-102130525D01*
X100878991Y-102130524D01*
X100882060Y-102129482D01*
X101152468Y-101996132D01*
X101403156Y-101828628D01*
X101629835Y-101629835D01*
X101828628Y-101403156D01*
X101996132Y-101152467D01*
X102129482Y-100882060D01*
X102226396Y-100596561D01*
X102285216Y-100300854D01*
X102298352Y-100100446D01*
X102304723Y-100003234D01*
X102304935Y-100000000D01*
X102291679Y-99797746D01*
X102285428Y-99702374D01*
X102285427Y-99702368D01*
X102285216Y-99699146D01*
X102226396Y-99403439D01*
X102129482Y-99117940D01*
X102009875Y-98875401D01*
X101997568Y-98850444D01*
X101997565Y-98850439D01*
X101996132Y-98847533D01*
X101828628Y-98596844D01*
X101629835Y-98370165D01*
X101403156Y-98171372D01*
X101152468Y-98003868D01*
X100882060Y-97870518D01*
X100878991Y-97869476D01*
X100878988Y-97869475D01*
X100807903Y-97845345D01*
X100596561Y-97773604D01*
X100300854Y-97714784D01*
X100297632Y-97714573D01*
X100297626Y-97714572D01*
X100003234Y-97695277D01*
X100000000Y-97695065D01*
X99996766Y-97695277D01*
X99702374Y-97714572D01*
X99702368Y-97714573D01*
X99699146Y-97714784D01*
X99403439Y-97773604D01*
X99117940Y-97870518D01*
X98986863Y-97935158D01*
X98850444Y-98002432D01*
X98850439Y-98002435D01*
X98847533Y-98003868D01*
X98596844Y-98171372D01*
X98370165Y-98370165D01*
X98171372Y-98596844D01*
X98003868Y-98847533D01*
X98002435Y-98850439D01*
X98002432Y-98850444D01*
X97990125Y-98875401D01*
X97870518Y-99117940D01*
X97773604Y-99403439D01*
X97714784Y-99699146D01*
X97714573Y-99702368D01*
X97714572Y-99702374D01*
X97704212Y-99860439D01*
X97697982Y-99955499D01*
X97695065Y-100000000D01*
X95534059Y-100000000D01*
X95693576Y-99928143D01*
X95890732Y-99795409D01*
X95939671Y-99748724D01*
X96059671Y-99634250D01*
X96059675Y-99634245D01*
X96062705Y-99631355D01*
X96204579Y-99440670D01*
X96263407Y-99324963D01*
X96310398Y-99232539D01*
X96310400Y-99232535D01*
X96312295Y-99228807D01*
X96382775Y-99001824D01*
X96402700Y-98851497D01*
X96413454Y-98770362D01*
X96413454Y-98770360D01*
X96414004Y-98766211D01*
X96405087Y-98528705D01*
X96404227Y-98524605D01*
X96404226Y-98524599D01*
X96371372Y-98368019D01*
X96356281Y-98296096D01*
X96268980Y-98075037D01*
X96226887Y-98005669D01*
X96147857Y-97875433D01*
X96145681Y-97871847D01*
X96061334Y-97774645D01*
X95992657Y-97695501D01*
X95992653Y-97695497D01*
X95989910Y-97692336D01*
X95806120Y-97541638D01*
X95599567Y-97424061D01*
X95376156Y-97342966D01*
X95326806Y-97334042D01*
X95145479Y-97301253D01*
X95145474Y-97301252D01*
X95142275Y-97300674D01*
X95122678Y-97299750D01*
X95118528Y-97299554D01*
X95118524Y-97299554D01*
X95117381Y-97299500D01*
X94950320Y-97299500D01*
X94948237Y-97299677D01*
X94948231Y-97299677D01*
X94777348Y-97314177D01*
X94777347Y-97314177D01*
X94773177Y-97314531D01*
X94769127Y-97315582D01*
X94769122Y-97315583D01*
X94547182Y-97373187D01*
X94547179Y-97373188D01*
X94543126Y-97374240D01*
X94326424Y-97471857D01*
X94129268Y-97604591D01*
X94126241Y-97607478D01*
X94126238Y-97607481D01*
X93960329Y-97765750D01*
X93960325Y-97765755D01*
X93957295Y-97768645D01*
X93815421Y-97959330D01*
X93813519Y-97963071D01*
X93754614Y-98078930D01*
X93707705Y-98171193D01*
X93637225Y-98398176D01*
X93636675Y-98402326D01*
X93610536Y-98599539D01*
X93605996Y-98633789D01*
X67300000Y-98633789D01*
X67300000Y-93308440D01*
X69294770Y-93308440D01*
X69297101Y-93344008D01*
X69303204Y-93437114D01*
X69309200Y-93528604D01*
X69310316Y-93532997D01*
X69310316Y-93532999D01*
X69333873Y-93625754D01*
X69363511Y-93742452D01*
X69455883Y-93942821D01*
X69583222Y-94123002D01*
X69741264Y-94276961D01*
X69924717Y-94399540D01*
X70127436Y-94486635D01*
X70167458Y-94495691D01*
X70338206Y-94534328D01*
X70338211Y-94534329D01*
X70342632Y-94535329D01*
X70452865Y-94539660D01*
X70558565Y-94543813D01*
X70558566Y-94543813D01*
X70563098Y-94543991D01*
X70781452Y-94512331D01*
X70785751Y-94510872D01*
X70785754Y-94510871D01*
X70817779Y-94500000D01*
X83579819Y-94500000D01*
X83598508Y-94713619D01*
X83599627Y-94717794D01*
X83599627Y-94717796D01*
X83623214Y-94805823D01*
X83654008Y-94920747D01*
X83744632Y-95115090D01*
X83867627Y-95290745D01*
X84019255Y-95442373D01*
X84194909Y-95565368D01*
X84389253Y-95655992D01*
X84474261Y-95678770D01*
X84592204Y-95710373D01*
X84592206Y-95710373D01*
X84596381Y-95711492D01*
X84810000Y-95730181D01*
X85023619Y-95711492D01*
X85027794Y-95710373D01*
X85027796Y-95710373D01*
X85145739Y-95678770D01*
X85230747Y-95655992D01*
X85425091Y-95565368D01*
X85600745Y-95442373D01*
X85752373Y-95290745D01*
X85875368Y-95115090D01*
X85965992Y-94920747D01*
X85996786Y-94805823D01*
X86020373Y-94717796D01*
X86020373Y-94717794D01*
X86021492Y-94713619D01*
X86040181Y-94500000D01*
X86034388Y-94433789D01*
X93605996Y-94433789D01*
X93614913Y-94671295D01*
X93615773Y-94675395D01*
X93615774Y-94675401D01*
X93641430Y-94797674D01*
X93663719Y-94903904D01*
X93751020Y-95124963D01*
X93874319Y-95328153D01*
X93877069Y-95331322D01*
X94027343Y-95504499D01*
X94027347Y-95504503D01*
X94030090Y-95507664D01*
X94213880Y-95658362D01*
X94420433Y-95775939D01*
X94643844Y-95857034D01*
X94693194Y-95865958D01*
X94874521Y-95898747D01*
X94874526Y-95898748D01*
X94877725Y-95899326D01*
X94897322Y-95900250D01*
X94901472Y-95900446D01*
X94901476Y-95900446D01*
X94902619Y-95900500D01*
X95069680Y-95900500D01*
X95071763Y-95900323D01*
X95071769Y-95900323D01*
X95242652Y-95885823D01*
X95242653Y-95885823D01*
X95246823Y-95885469D01*
X95250873Y-95884418D01*
X95250878Y-95884417D01*
X95472818Y-95826813D01*
X95472821Y-95826812D01*
X95476874Y-95825760D01*
X95693576Y-95728143D01*
X95800746Y-95655992D01*
X95887261Y-95597746D01*
X95887262Y-95597745D01*
X95890732Y-95595409D01*
X95920305Y-95567198D01*
X96059671Y-95434250D01*
X96059675Y-95434245D01*
X96062705Y-95431355D01*
X96204579Y-95240670D01*
X96263407Y-95124963D01*
X96310398Y-95032539D01*
X96310400Y-95032535D01*
X96312295Y-95028807D01*
X96382775Y-94801824D01*
X96414004Y-94566211D01*
X96405087Y-94328705D01*
X96404227Y-94324605D01*
X96404226Y-94324599D01*
X96357143Y-94100206D01*
X96356281Y-94096096D01*
X96268980Y-93875037D01*
X96244285Y-93834340D01*
X96147857Y-93675433D01*
X96145681Y-93671847D01*
X96098048Y-93616955D01*
X95992657Y-93495501D01*
X95992653Y-93495497D01*
X95989910Y-93492336D01*
X95806120Y-93341638D01*
X95599567Y-93224061D01*
X95376156Y-93142966D01*
X95326806Y-93134042D01*
X95145479Y-93101253D01*
X95145474Y-93101252D01*
X95142275Y-93100674D01*
X95122678Y-93099750D01*
X95118528Y-93099554D01*
X95118524Y-93099554D01*
X95117381Y-93099500D01*
X94950320Y-93099500D01*
X94948237Y-93099677D01*
X94948231Y-93099677D01*
X94777348Y-93114177D01*
X94777347Y-93114177D01*
X94773177Y-93114531D01*
X94769127Y-93115582D01*
X94769122Y-93115583D01*
X94547182Y-93173187D01*
X94547179Y-93173188D01*
X94543126Y-93174240D01*
X94326424Y-93271857D01*
X94322947Y-93274198D01*
X94322945Y-93274199D01*
X94135830Y-93400173D01*
X94129268Y-93404591D01*
X94126241Y-93407478D01*
X94126238Y-93407481D01*
X93960329Y-93565750D01*
X93960325Y-93565755D01*
X93957295Y-93568645D01*
X93815421Y-93759330D01*
X93813519Y-93763071D01*
X93720245Y-93946529D01*
X93707705Y-93971193D01*
X93637225Y-94198176D01*
X93605996Y-94433789D01*
X86034388Y-94433789D01*
X86021492Y-94286381D01*
X86019644Y-94279482D01*
X85978562Y-94126164D01*
X85965992Y-94079253D01*
X85875368Y-93884910D01*
X85839959Y-93834340D01*
X85787436Y-93759330D01*
X85752373Y-93709255D01*
X85600745Y-93557627D01*
X85425091Y-93434632D01*
X85230747Y-93344008D01*
X85081197Y-93303936D01*
X85027796Y-93289627D01*
X85027794Y-93289627D01*
X85023619Y-93288508D01*
X84810000Y-93269819D01*
X84596381Y-93288508D01*
X84592206Y-93289627D01*
X84592204Y-93289627D01*
X84538803Y-93303936D01*
X84389253Y-93344008D01*
X84194910Y-93434632D01*
X84019255Y-93557627D01*
X83867627Y-93709255D01*
X83832564Y-93759330D01*
X83780042Y-93834340D01*
X83744632Y-93884910D01*
X83654008Y-94079253D01*
X83641438Y-94126164D01*
X83600357Y-94279482D01*
X83598508Y-94286381D01*
X83579819Y-94500000D01*
X70817779Y-94500000D01*
X70986078Y-94442870D01*
X70990379Y-94441410D01*
X70996510Y-94437977D01*
X71178925Y-94335819D01*
X71182884Y-94333602D01*
X71352518Y-94192518D01*
X71493602Y-94022884D01*
X71570871Y-93884910D01*
X71599192Y-93834340D01*
X71599193Y-93834338D01*
X71601410Y-93830379D01*
X71672331Y-93621452D01*
X71679988Y-93568645D01*
X71703571Y-93405997D01*
X71703571Y-93405991D01*
X71703991Y-93403098D01*
X71705491Y-93345836D01*
X71705567Y-93342914D01*
X71705567Y-93342909D01*
X71705643Y-93340000D01*
X71701015Y-93289627D01*
X71687669Y-93144397D01*
X71685454Y-93120289D01*
X71625565Y-92907936D01*
X71623557Y-92903864D01*
X71623555Y-92903859D01*
X71529988Y-92714125D01*
X71527980Y-92710053D01*
X71395967Y-92533267D01*
X71233949Y-92383499D01*
X71047350Y-92265764D01*
X71036408Y-92261399D01*
X70861085Y-92191452D01*
X70814043Y-92152328D01*
X70798982Y-92093025D01*
X70821655Y-92036196D01*
X70873401Y-92003546D01*
X70897770Y-92000500D01*
X71444646Y-92000500D01*
X71462561Y-91998368D01*
X71463469Y-91998260D01*
X71463470Y-91998260D01*
X71470846Y-91997382D01*
X71573153Y-91951939D01*
X71652241Y-91872713D01*
X71697506Y-91770327D01*
X71700500Y-91744646D01*
X71700500Y-89855354D01*
X71697382Y-89829154D01*
X71651939Y-89726847D01*
X71572713Y-89647759D01*
X71543591Y-89634884D01*
X71477136Y-89605504D01*
X71477134Y-89605504D01*
X71470327Y-89602494D01*
X71456322Y-89600861D01*
X71447494Y-89599832D01*
X71447493Y-89599832D01*
X71444646Y-89599500D01*
X69555354Y-89599500D01*
X69538951Y-89601452D01*
X69536531Y-89601740D01*
X69536530Y-89601740D01*
X69529154Y-89602618D01*
X69426847Y-89648061D01*
X69347759Y-89727287D01*
X69302494Y-89829673D01*
X69299500Y-89855354D01*
X69299500Y-91744646D01*
X69302618Y-91770846D01*
X69348061Y-91873153D01*
X69427287Y-91952241D01*
X69435645Y-91955936D01*
X69522864Y-91994496D01*
X69522866Y-91994496D01*
X69529673Y-91997506D01*
X69537067Y-91998368D01*
X69552378Y-92000153D01*
X69555354Y-92000500D01*
X70107766Y-92000500D01*
X70165957Y-92019407D01*
X70201921Y-92068907D01*
X70201921Y-92130093D01*
X70165957Y-92179593D01*
X70142031Y-92192381D01*
X69985220Y-92250231D01*
X69985217Y-92250232D01*
X69980957Y-92251804D01*
X69977054Y-92254126D01*
X69977052Y-92254127D01*
X69957492Y-92265764D01*
X69791341Y-92364614D01*
X69787926Y-92367609D01*
X69787923Y-92367611D01*
X69680036Y-92462225D01*
X69625457Y-92510090D01*
X69488863Y-92683360D01*
X69386131Y-92878620D01*
X69320703Y-93089333D01*
X69320169Y-93093843D01*
X69320169Y-93093844D01*
X69317039Y-93120289D01*
X69294770Y-93308440D01*
X67300000Y-93308440D01*
X67300000Y-86110409D01*
X116189185Y-86110409D01*
X116207847Y-86287968D01*
X116265383Y-86456979D01*
X116358933Y-86609043D01*
X116362804Y-86612996D01*
X116421391Y-86672823D01*
X116483849Y-86736603D01*
X116633921Y-86833317D01*
X116801690Y-86894380D01*
X116939581Y-86911800D01*
X117034889Y-86911800D01*
X117037643Y-86911491D01*
X117037645Y-86911491D01*
X117064439Y-86908486D01*
X117167424Y-86896934D01*
X117336029Y-86838219D01*
X117375489Y-86813561D01*
X117482747Y-86746540D01*
X117482749Y-86746538D01*
X117487437Y-86743609D01*
X117491360Y-86739714D01*
X117491363Y-86739711D01*
X117610193Y-86621707D01*
X117610194Y-86621705D01*
X117614121Y-86617806D01*
X117622675Y-86604328D01*
X117706819Y-86471738D01*
X117709786Y-86467063D01*
X117769676Y-86298871D01*
X117790815Y-86121591D01*
X117772153Y-85944032D01*
X117755734Y-85895800D01*
X117716402Y-85780264D01*
X117716401Y-85780263D01*
X117714617Y-85775021D01*
X117621067Y-85622957D01*
X117608666Y-85610293D01*
X117500022Y-85499350D01*
X117496151Y-85495397D01*
X117346079Y-85398683D01*
X117178310Y-85337620D01*
X117040419Y-85320200D01*
X116945111Y-85320200D01*
X116942357Y-85320509D01*
X116942355Y-85320509D01*
X116915561Y-85323514D01*
X116812576Y-85335066D01*
X116643971Y-85393781D01*
X116636126Y-85398683D01*
X116497253Y-85485460D01*
X116497251Y-85485462D01*
X116492563Y-85488391D01*
X116488640Y-85492286D01*
X116488637Y-85492289D01*
X116374425Y-85605707D01*
X116365879Y-85614194D01*
X116362913Y-85618868D01*
X116362912Y-85618869D01*
X116318046Y-85689566D01*
X116270214Y-85764937D01*
X116210324Y-85933129D01*
X116189185Y-86110409D01*
X67300000Y-86110409D01*
X67300000Y-83142772D01*
X68349500Y-83142772D01*
X68360364Y-83232547D01*
X68415887Y-83372783D01*
X68419967Y-83378158D01*
X68419968Y-83378160D01*
X68484667Y-83463397D01*
X68507078Y-83492922D01*
X68512457Y-83497005D01*
X68621840Y-83580032D01*
X68621842Y-83580033D01*
X68627217Y-83584113D01*
X68633492Y-83586597D01*
X68633493Y-83586598D01*
X68644503Y-83590957D01*
X68767453Y-83639636D01*
X68857228Y-83650500D01*
X70142772Y-83650500D01*
X70232547Y-83639636D01*
X70355497Y-83590957D01*
X70366507Y-83586598D01*
X70366508Y-83586597D01*
X70372783Y-83584113D01*
X70378158Y-83580033D01*
X70378160Y-83580032D01*
X70487543Y-83497005D01*
X70492922Y-83492922D01*
X70515333Y-83463397D01*
X70580032Y-83378160D01*
X70580033Y-83378158D01*
X70584113Y-83372783D01*
X70639636Y-83232547D01*
X70650500Y-83142772D01*
X70650500Y-82469754D01*
X76344967Y-82469754D01*
X76358796Y-82680749D01*
X76359912Y-82685142D01*
X76359912Y-82685144D01*
X76382171Y-82772787D01*
X76410845Y-82885690D01*
X76412747Y-82889815D01*
X76412747Y-82889816D01*
X76464363Y-83001779D01*
X76499369Y-83077714D01*
X76621405Y-83250391D01*
X76772865Y-83397937D01*
X76776638Y-83400458D01*
X76944899Y-83512887D01*
X76944902Y-83512889D01*
X76948677Y-83515411D01*
X77045472Y-83556997D01*
X77138774Y-83597083D01*
X77138778Y-83597084D01*
X77142953Y-83598878D01*
X77147387Y-83599881D01*
X77147386Y-83599881D01*
X77344760Y-83644543D01*
X77344765Y-83644544D01*
X77349186Y-83645544D01*
X77454828Y-83649695D01*
X77555937Y-83653668D01*
X77555938Y-83653668D01*
X77560470Y-83653846D01*
X77769730Y-83623504D01*
X77774029Y-83622045D01*
X77774032Y-83622044D01*
X77965654Y-83556997D01*
X77969955Y-83555537D01*
X78154442Y-83452219D01*
X78317012Y-83317012D01*
X78452219Y-83154442D01*
X78538461Y-83000447D01*
X78553319Y-82973916D01*
X78553320Y-82973914D01*
X78555537Y-82969955D01*
X78582532Y-82890429D01*
X78622044Y-82774032D01*
X78622045Y-82774029D01*
X78623504Y-82769730D01*
X78653846Y-82560470D01*
X78655429Y-82500000D01*
X78652650Y-82469754D01*
X80344967Y-82469754D01*
X80358796Y-82680749D01*
X80359912Y-82685142D01*
X80359912Y-82685144D01*
X80382171Y-82772787D01*
X80410845Y-82885690D01*
X80412747Y-82889815D01*
X80412747Y-82889816D01*
X80464363Y-83001779D01*
X80499369Y-83077714D01*
X80621405Y-83250391D01*
X80772865Y-83397937D01*
X80776638Y-83400458D01*
X80944899Y-83512887D01*
X80944902Y-83512889D01*
X80948677Y-83515411D01*
X81045472Y-83556997D01*
X81138774Y-83597083D01*
X81138778Y-83597084D01*
X81142953Y-83598878D01*
X81147387Y-83599881D01*
X81147386Y-83599881D01*
X81344760Y-83644543D01*
X81344765Y-83644544D01*
X81349186Y-83645544D01*
X81454828Y-83649695D01*
X81555937Y-83653668D01*
X81555938Y-83653668D01*
X81560470Y-83653846D01*
X81769730Y-83623504D01*
X81774029Y-83622045D01*
X81774032Y-83622044D01*
X81965654Y-83556997D01*
X81969955Y-83555537D01*
X82154442Y-83452219D01*
X82317012Y-83317012D01*
X82452219Y-83154442D01*
X82538461Y-83000447D01*
X82553319Y-82973916D01*
X82553320Y-82973914D01*
X82555537Y-82969955D01*
X82582532Y-82890429D01*
X82622044Y-82774032D01*
X82622045Y-82774029D01*
X82623504Y-82769730D01*
X82653846Y-82560470D01*
X82655429Y-82500000D01*
X82652650Y-82469754D01*
X84344967Y-82469754D01*
X84358796Y-82680749D01*
X84359912Y-82685142D01*
X84359912Y-82685144D01*
X84382171Y-82772787D01*
X84410845Y-82885690D01*
X84412747Y-82889815D01*
X84412747Y-82889816D01*
X84464363Y-83001779D01*
X84499369Y-83077714D01*
X84621405Y-83250391D01*
X84772865Y-83397937D01*
X84776638Y-83400458D01*
X84944899Y-83512887D01*
X84944902Y-83512889D01*
X84948677Y-83515411D01*
X85045472Y-83556997D01*
X85138774Y-83597083D01*
X85138778Y-83597084D01*
X85142953Y-83598878D01*
X85147387Y-83599881D01*
X85147386Y-83599881D01*
X85344760Y-83644543D01*
X85344765Y-83644544D01*
X85349186Y-83645544D01*
X85454828Y-83649695D01*
X85555937Y-83653668D01*
X85555938Y-83653668D01*
X85560470Y-83653846D01*
X85769730Y-83623504D01*
X85774029Y-83622045D01*
X85774032Y-83622044D01*
X85965654Y-83556997D01*
X85969955Y-83555537D01*
X86154442Y-83452219D01*
X86317012Y-83317012D01*
X86452219Y-83154442D01*
X86538461Y-83000447D01*
X86553319Y-82973916D01*
X86553320Y-82973914D01*
X86555537Y-82969955D01*
X86582532Y-82890429D01*
X86622044Y-82774032D01*
X86622045Y-82774029D01*
X86623504Y-82769730D01*
X86653846Y-82560470D01*
X86655429Y-82500000D01*
X86636372Y-82292611D01*
X107894394Y-82292611D01*
X107912999Y-82461135D01*
X107971266Y-82620356D01*
X108065830Y-82761083D01*
X108191233Y-82875191D01*
X108340235Y-82956092D01*
X108393078Y-82969955D01*
X108498464Y-82997603D01*
X108498468Y-82997604D01*
X108504233Y-82999116D01*
X108510194Y-82999210D01*
X108510197Y-82999210D01*
X108588965Y-83000447D01*
X108673760Y-83001779D01*
X108679575Y-83000447D01*
X108679577Y-83000447D01*
X108833206Y-82965262D01*
X108833209Y-82965261D01*
X108839029Y-82963928D01*
X108854610Y-82956092D01*
X108985165Y-82890429D01*
X108990498Y-82887747D01*
X108995035Y-82883872D01*
X108995038Y-82883870D01*
X109114886Y-82781509D01*
X109119423Y-82777634D01*
X109127258Y-82766730D01*
X109176567Y-82730507D01*
X109207654Y-82725500D01*
X111582744Y-82725500D01*
X111640935Y-82744407D01*
X111652748Y-82754496D01*
X113171095Y-84272843D01*
X113198872Y-84327360D01*
X113199244Y-84355768D01*
X113196586Y-84375961D01*
X113194394Y-84392611D01*
X113195049Y-84398544D01*
X113195049Y-84398548D01*
X113212344Y-84555204D01*
X113212999Y-84561135D01*
X113271266Y-84720356D01*
X113274591Y-84725305D01*
X113274592Y-84725306D01*
X113293976Y-84754152D01*
X113365830Y-84861083D01*
X113491233Y-84975191D01*
X113640235Y-85056092D01*
X113675189Y-85065262D01*
X113798464Y-85097603D01*
X113798468Y-85097604D01*
X113804233Y-85099116D01*
X113810194Y-85099210D01*
X113810197Y-85099210D01*
X113888996Y-85100447D01*
X113973760Y-85101779D01*
X113979575Y-85100447D01*
X113979577Y-85100447D01*
X114005941Y-85094409D01*
X123809185Y-85094409D01*
X123827847Y-85271968D01*
X123829631Y-85277208D01*
X123829631Y-85277209D01*
X123883598Y-85435736D01*
X123885383Y-85440979D01*
X123978933Y-85593043D01*
X123982804Y-85596996D01*
X123995825Y-85610293D01*
X124103849Y-85720603D01*
X124253921Y-85817317D01*
X124421690Y-85878380D01*
X124559581Y-85895800D01*
X124654889Y-85895800D01*
X124657643Y-85895491D01*
X124657645Y-85895491D01*
X124684439Y-85892486D01*
X124787424Y-85880934D01*
X124956029Y-85822219D01*
X125055181Y-85760262D01*
X125102747Y-85730540D01*
X125102749Y-85730538D01*
X125107437Y-85727609D01*
X125111360Y-85723714D01*
X125111363Y-85723711D01*
X125230193Y-85605707D01*
X125230194Y-85605705D01*
X125234121Y-85601806D01*
X125242675Y-85588328D01*
X125326819Y-85455738D01*
X125329786Y-85451063D01*
X125389676Y-85282871D01*
X125410815Y-85105591D01*
X125392153Y-84928032D01*
X125375734Y-84879800D01*
X125336402Y-84764264D01*
X125336401Y-84764263D01*
X125334617Y-84759021D01*
X125241067Y-84606957D01*
X125228666Y-84594293D01*
X125120022Y-84483350D01*
X125116151Y-84479397D01*
X124966079Y-84382683D01*
X124798310Y-84321620D01*
X124660419Y-84304200D01*
X124565111Y-84304200D01*
X124562357Y-84304509D01*
X124562355Y-84304509D01*
X124536894Y-84307365D01*
X124432576Y-84319066D01*
X124263971Y-84377781D01*
X124256126Y-84382683D01*
X124117253Y-84469460D01*
X124117251Y-84469462D01*
X124112563Y-84472391D01*
X124108640Y-84476286D01*
X124108637Y-84476289D01*
X123995976Y-84588167D01*
X123985879Y-84598194D01*
X123982913Y-84602868D01*
X123982912Y-84602869D01*
X123938046Y-84673566D01*
X123890214Y-84748937D01*
X123830324Y-84917129D01*
X123829669Y-84922622D01*
X123812661Y-85065262D01*
X123809185Y-85094409D01*
X114005941Y-85094409D01*
X114133206Y-85065262D01*
X114133209Y-85065261D01*
X114139029Y-85063928D01*
X114154610Y-85056092D01*
X114285165Y-84990429D01*
X114290498Y-84987747D01*
X114295035Y-84983872D01*
X114295038Y-84983870D01*
X114414888Y-84881508D01*
X114414891Y-84881505D01*
X114419423Y-84877634D01*
X114429858Y-84863112D01*
X114514877Y-84744796D01*
X114514878Y-84744794D01*
X114518361Y-84739947D01*
X114532570Y-84704603D01*
X114579377Y-84588167D01*
X114579378Y-84588165D01*
X114581601Y-84582634D01*
X114596294Y-84479397D01*
X114605034Y-84417985D01*
X114605034Y-84417979D01*
X114605490Y-84414778D01*
X114605645Y-84400000D01*
X114588870Y-84261378D01*
X114585993Y-84237602D01*
X114585992Y-84237599D01*
X114585276Y-84231680D01*
X114527360Y-84078409D01*
X116189185Y-84078409D01*
X116207847Y-84255968D01*
X116209631Y-84261208D01*
X116209631Y-84261209D01*
X116252348Y-84386688D01*
X116265383Y-84424979D01*
X116271587Y-84435063D01*
X116345498Y-84555204D01*
X116358933Y-84577043D01*
X116362804Y-84580996D01*
X116375825Y-84594293D01*
X116483849Y-84704603D01*
X116633921Y-84801317D01*
X116801690Y-84862380D01*
X116939581Y-84879800D01*
X117034889Y-84879800D01*
X117037643Y-84879491D01*
X117037645Y-84879491D01*
X117064439Y-84876486D01*
X117167424Y-84864934D01*
X117336029Y-84806219D01*
X117450951Y-84734408D01*
X117482747Y-84714540D01*
X117482749Y-84714538D01*
X117487437Y-84711609D01*
X117491360Y-84707714D01*
X117491363Y-84707711D01*
X117610193Y-84589707D01*
X117610194Y-84589705D01*
X117614121Y-84585806D01*
X117622675Y-84572328D01*
X117706819Y-84439738D01*
X117709786Y-84435063D01*
X117769676Y-84266871D01*
X117790815Y-84089591D01*
X117772153Y-83912032D01*
X117741014Y-83820560D01*
X117716402Y-83748264D01*
X117716401Y-83748263D01*
X117714617Y-83743021D01*
X117669789Y-83670154D01*
X117623968Y-83595672D01*
X117623966Y-83595670D01*
X117621067Y-83590957D01*
X117610369Y-83580032D01*
X117525064Y-83492922D01*
X117496151Y-83463397D01*
X117346079Y-83366683D01*
X117178310Y-83305620D01*
X117040419Y-83288200D01*
X116945111Y-83288200D01*
X116942357Y-83288509D01*
X116942355Y-83288509D01*
X116915561Y-83291514D01*
X116812576Y-83303066D01*
X116643971Y-83361781D01*
X116636408Y-83366507D01*
X116497253Y-83453460D01*
X116497251Y-83453462D01*
X116492563Y-83456391D01*
X116488640Y-83460286D01*
X116488637Y-83460289D01*
X116391252Y-83556997D01*
X116365879Y-83582194D01*
X116362913Y-83586868D01*
X116362912Y-83586869D01*
X116356430Y-83597083D01*
X116270214Y-83732937D01*
X116210324Y-83901129D01*
X116189185Y-84078409D01*
X114527360Y-84078409D01*
X114525345Y-84073077D01*
X114429312Y-83933349D01*
X114302721Y-83820560D01*
X114152881Y-83741224D01*
X114070661Y-83720572D01*
X113994231Y-83701373D01*
X113994228Y-83701373D01*
X113988441Y-83699919D01*
X113841387Y-83699149D01*
X113783297Y-83679937D01*
X113771902Y-83670154D01*
X112053220Y-81951472D01*
X112029944Y-81939612D01*
X112016715Y-81931506D01*
X111995581Y-81916151D01*
X111970744Y-81908081D01*
X111956402Y-81902140D01*
X111933126Y-81890281D01*
X111925430Y-81889062D01*
X111907335Y-81886196D01*
X111892233Y-81882570D01*
X111874804Y-81876907D01*
X111874798Y-81876906D01*
X111867393Y-81874500D01*
X109209336Y-81874500D01*
X109151145Y-81855593D01*
X109135075Y-81840970D01*
X109132692Y-81838266D01*
X109129312Y-81833349D01*
X109124859Y-81829382D01*
X109124856Y-81829378D01*
X109048715Y-81761539D01*
X109002721Y-81720560D01*
X108852881Y-81641224D01*
X108770661Y-81620572D01*
X108694231Y-81601373D01*
X108694228Y-81601373D01*
X108688441Y-81599919D01*
X108602841Y-81599471D01*
X108524861Y-81599062D01*
X108524859Y-81599062D01*
X108518895Y-81599031D01*
X108513099Y-81600423D01*
X108513095Y-81600423D01*
X108408646Y-81625500D01*
X108354032Y-81638612D01*
X108287819Y-81672787D01*
X108208675Y-81713636D01*
X108208673Y-81713638D01*
X108203369Y-81716375D01*
X108075604Y-81827831D01*
X108072173Y-81832713D01*
X108072172Y-81832714D01*
X108023380Y-81902138D01*
X107978113Y-81966547D01*
X107916524Y-82124513D01*
X107894394Y-82292611D01*
X86636372Y-82292611D01*
X86636081Y-82289440D01*
X86578686Y-82085931D01*
X86485165Y-81896290D01*
X86358651Y-81726867D01*
X86203381Y-81583337D01*
X86134613Y-81539947D01*
X86028391Y-81472926D01*
X86024554Y-81470505D01*
X85828160Y-81392152D01*
X85620775Y-81350901D01*
X85516599Y-81349537D01*
X85413886Y-81348192D01*
X85413881Y-81348192D01*
X85409346Y-81348133D01*
X85404873Y-81348902D01*
X85404868Y-81348902D01*
X85301601Y-81366647D01*
X85200953Y-81383941D01*
X85002575Y-81457127D01*
X84998676Y-81459446D01*
X84998671Y-81459449D01*
X84855216Y-81544796D01*
X84820856Y-81565238D01*
X84817441Y-81568233D01*
X84817438Y-81568235D01*
X84730581Y-81644407D01*
X84661881Y-81704655D01*
X84659073Y-81708217D01*
X84536321Y-81863928D01*
X84530976Y-81870708D01*
X84528862Y-81874726D01*
X84480553Y-81966547D01*
X84432523Y-82057836D01*
X84369820Y-82259773D01*
X84344967Y-82469754D01*
X82652650Y-82469754D01*
X82636081Y-82289440D01*
X82578686Y-82085931D01*
X82485165Y-81896290D01*
X82358651Y-81726867D01*
X82203381Y-81583337D01*
X82134613Y-81539947D01*
X82028391Y-81472926D01*
X82024554Y-81470505D01*
X81828160Y-81392152D01*
X81620775Y-81350901D01*
X81516599Y-81349537D01*
X81413886Y-81348192D01*
X81413881Y-81348192D01*
X81409346Y-81348133D01*
X81404873Y-81348902D01*
X81404868Y-81348902D01*
X81301601Y-81366647D01*
X81200953Y-81383941D01*
X81002575Y-81457127D01*
X80998676Y-81459446D01*
X80998671Y-81459449D01*
X80855216Y-81544796D01*
X80820856Y-81565238D01*
X80817441Y-81568233D01*
X80817438Y-81568235D01*
X80730581Y-81644407D01*
X80661881Y-81704655D01*
X80659073Y-81708217D01*
X80536321Y-81863928D01*
X80530976Y-81870708D01*
X80528862Y-81874726D01*
X80480553Y-81966547D01*
X80432523Y-82057836D01*
X80369820Y-82259773D01*
X80344967Y-82469754D01*
X78652650Y-82469754D01*
X78636081Y-82289440D01*
X78578686Y-82085931D01*
X78485165Y-81896290D01*
X78358651Y-81726867D01*
X78203381Y-81583337D01*
X78134613Y-81539947D01*
X78028391Y-81472926D01*
X78024554Y-81470505D01*
X77828160Y-81392152D01*
X77620775Y-81350901D01*
X77516599Y-81349537D01*
X77413886Y-81348192D01*
X77413881Y-81348192D01*
X77409346Y-81348133D01*
X77404873Y-81348902D01*
X77404868Y-81348902D01*
X77301601Y-81366647D01*
X77200953Y-81383941D01*
X77002575Y-81457127D01*
X76998676Y-81459446D01*
X76998671Y-81459449D01*
X76855216Y-81544796D01*
X76820856Y-81565238D01*
X76817441Y-81568233D01*
X76817438Y-81568235D01*
X76730581Y-81644407D01*
X76661881Y-81704655D01*
X76659073Y-81708217D01*
X76536321Y-81863928D01*
X76530976Y-81870708D01*
X76528862Y-81874726D01*
X76480553Y-81966547D01*
X76432523Y-82057836D01*
X76369820Y-82259773D01*
X76344967Y-82469754D01*
X70650500Y-82469754D01*
X70650500Y-81857228D01*
X70639636Y-81767453D01*
X70584113Y-81627217D01*
X70564497Y-81601373D01*
X70497005Y-81512457D01*
X70492922Y-81507078D01*
X70442523Y-81468823D01*
X70378160Y-81419968D01*
X70378158Y-81419967D01*
X70372783Y-81415887D01*
X70232547Y-81360364D01*
X70142772Y-81349500D01*
X68857228Y-81349500D01*
X68767453Y-81360364D01*
X68627217Y-81415887D01*
X68621842Y-81419967D01*
X68621840Y-81419968D01*
X68557477Y-81468823D01*
X68507078Y-81507078D01*
X68502995Y-81512457D01*
X68435504Y-81601373D01*
X68415887Y-81627217D01*
X68360364Y-81767453D01*
X68349500Y-81857228D01*
X68349500Y-83142772D01*
X67300000Y-83142772D01*
X67300000Y-81192611D01*
X115394394Y-81192611D01*
X115395049Y-81198544D01*
X115395049Y-81198548D01*
X115411869Y-81350901D01*
X115412999Y-81361135D01*
X115471266Y-81520356D01*
X115474591Y-81525305D01*
X115474592Y-81525306D01*
X115487689Y-81544796D01*
X115565830Y-81661083D01*
X115691233Y-81775191D01*
X115840235Y-81856092D01*
X115875189Y-81865262D01*
X115998464Y-81897603D01*
X115998468Y-81897604D01*
X116004233Y-81899116D01*
X116010194Y-81899210D01*
X116010197Y-81899210D01*
X116088965Y-81900447D01*
X116173760Y-81901779D01*
X116179575Y-81900447D01*
X116179577Y-81900447D01*
X116333206Y-81865262D01*
X116333209Y-81865261D01*
X116339029Y-81863928D01*
X116346410Y-81860216D01*
X116485165Y-81790429D01*
X116490498Y-81787747D01*
X116495035Y-81783872D01*
X116495038Y-81783870D01*
X116614886Y-81681509D01*
X116614887Y-81681508D01*
X116619423Y-81677634D01*
X116627258Y-81666730D01*
X116676567Y-81630507D01*
X116707654Y-81625500D01*
X120690737Y-81625500D01*
X120748928Y-81644407D01*
X120763835Y-81658114D01*
X120765830Y-81661083D01*
X120891233Y-81775191D01*
X121040235Y-81856092D01*
X121075189Y-81865262D01*
X121198464Y-81897603D01*
X121198468Y-81897604D01*
X121204233Y-81899116D01*
X121210194Y-81899210D01*
X121210197Y-81899210D01*
X121288965Y-81900447D01*
X121373760Y-81901779D01*
X121379575Y-81900447D01*
X121379577Y-81900447D01*
X121533206Y-81865262D01*
X121533209Y-81865261D01*
X121539029Y-81863928D01*
X121546410Y-81860216D01*
X121685165Y-81790429D01*
X121690498Y-81787747D01*
X121695035Y-81783872D01*
X121695038Y-81783870D01*
X121814888Y-81681508D01*
X121814891Y-81681505D01*
X121819423Y-81677634D01*
X121827258Y-81666731D01*
X121914877Y-81544796D01*
X121914878Y-81544794D01*
X121918361Y-81539947D01*
X121931575Y-81507078D01*
X121979377Y-81388167D01*
X121979378Y-81388165D01*
X121981601Y-81382634D01*
X121984661Y-81361135D01*
X122005034Y-81217985D01*
X122005034Y-81217979D01*
X122005490Y-81214778D01*
X122005645Y-81200000D01*
X121985276Y-81031680D01*
X121925345Y-80873077D01*
X121857595Y-80774500D01*
X121832692Y-80738267D01*
X121829312Y-80733349D01*
X121702721Y-80620560D01*
X121552881Y-80541224D01*
X121470661Y-80520571D01*
X121394231Y-80501373D01*
X121394228Y-80501373D01*
X121388441Y-80499919D01*
X121302841Y-80499471D01*
X121224861Y-80499062D01*
X121224859Y-80499062D01*
X121218895Y-80499031D01*
X121213099Y-80500423D01*
X121213095Y-80500423D01*
X121105703Y-80526207D01*
X121054032Y-80538612D01*
X120978700Y-80577494D01*
X120908675Y-80613636D01*
X120908673Y-80613638D01*
X120903369Y-80616375D01*
X120775604Y-80727831D01*
X120772172Y-80732714D01*
X120768179Y-80737149D01*
X120767227Y-80736292D01*
X120723442Y-80769164D01*
X120691378Y-80774500D01*
X116709336Y-80774500D01*
X116651145Y-80755593D01*
X116635075Y-80740970D01*
X116632692Y-80738266D01*
X116629312Y-80733349D01*
X116624859Y-80729382D01*
X116624856Y-80729378D01*
X116551577Y-80664089D01*
X116502721Y-80620560D01*
X116352881Y-80541224D01*
X116270661Y-80520571D01*
X116194231Y-80501373D01*
X116194228Y-80501373D01*
X116188441Y-80499919D01*
X116102841Y-80499471D01*
X116024861Y-80499062D01*
X116024859Y-80499062D01*
X116018895Y-80499031D01*
X116013099Y-80500423D01*
X116013095Y-80500423D01*
X115905703Y-80526207D01*
X115854032Y-80538612D01*
X115778700Y-80577494D01*
X115708675Y-80613636D01*
X115708673Y-80613638D01*
X115703369Y-80616375D01*
X115575604Y-80727831D01*
X115572173Y-80732713D01*
X115572172Y-80732714D01*
X115481544Y-80861665D01*
X115478113Y-80866547D01*
X115416524Y-81024513D01*
X115394394Y-81192611D01*
X67300000Y-81192611D01*
X67300000Y-75554288D01*
X69445404Y-75554288D01*
X69445861Y-75558236D01*
X69445861Y-75558241D01*
X69461680Y-75694961D01*
X69474081Y-75802140D01*
X69542017Y-76042219D01*
X69543695Y-76045818D01*
X69543696Y-76045820D01*
X69645780Y-76264742D01*
X69645783Y-76264747D01*
X69647462Y-76268348D01*
X69649697Y-76271637D01*
X69649700Y-76271642D01*
X69726285Y-76384332D01*
X69787706Y-76474710D01*
X69959138Y-76655994D01*
X70157349Y-76807538D01*
X70160852Y-76809416D01*
X70160853Y-76809417D01*
X70292646Y-76880084D01*
X70377239Y-76925443D01*
X70613152Y-77006674D01*
X70801500Y-77039207D01*
X70855942Y-77048611D01*
X70855944Y-77048611D01*
X70859017Y-77049142D01*
X70881989Y-77050185D01*
X70887818Y-77050450D01*
X70887824Y-77050450D01*
X70888922Y-77050500D01*
X71062691Y-77050500D01*
X71064665Y-77050341D01*
X71064669Y-77050341D01*
X71244742Y-77035853D01*
X71244747Y-77035852D01*
X71248702Y-77035534D01*
X71252562Y-77034586D01*
X71487140Y-76976968D01*
X71487145Y-76976966D01*
X71491006Y-76976018D01*
X71494667Y-76974464D01*
X71494670Y-76974463D01*
X71717014Y-76880084D01*
X71717016Y-76880083D01*
X71720677Y-76878529D01*
X71931808Y-76745573D01*
X71934788Y-76742946D01*
X71934793Y-76742942D01*
X72115982Y-76583202D01*
X72115983Y-76583201D01*
X72118965Y-76580572D01*
X72277334Y-76387770D01*
X72402840Y-76172128D01*
X72492255Y-75939195D01*
X72543278Y-75694961D01*
X72554596Y-75445712D01*
X72538781Y-75309018D01*
X72526376Y-75201807D01*
X72526375Y-75201803D01*
X72525919Y-75197860D01*
X72457983Y-74957781D01*
X72397406Y-74827872D01*
X72354220Y-74735258D01*
X72354217Y-74735253D01*
X72352538Y-74731652D01*
X72350303Y-74728363D01*
X72350300Y-74728358D01*
X72214530Y-74528580D01*
X72214529Y-74528579D01*
X72212294Y-74525290D01*
X72040862Y-74344006D01*
X71842651Y-74192462D01*
X71839147Y-74190583D01*
X71626260Y-74076433D01*
X71626258Y-74076432D01*
X71622761Y-74074557D01*
X71386848Y-73993326D01*
X71198500Y-73960793D01*
X71144058Y-73951389D01*
X71144056Y-73951389D01*
X71140983Y-73950858D01*
X71118011Y-73949815D01*
X71112182Y-73949550D01*
X71112176Y-73949550D01*
X71111078Y-73949500D01*
X70937309Y-73949500D01*
X70935335Y-73949659D01*
X70935331Y-73949659D01*
X70755258Y-73964147D01*
X70755253Y-73964148D01*
X70751298Y-73964466D01*
X70747439Y-73965414D01*
X70747438Y-73965414D01*
X70512860Y-74023032D01*
X70512855Y-74023034D01*
X70508994Y-74023982D01*
X70505333Y-74025536D01*
X70505330Y-74025537D01*
X70389846Y-74074557D01*
X70279323Y-74121471D01*
X70068192Y-74254427D01*
X70065212Y-74257054D01*
X70065207Y-74257058D01*
X69911742Y-74392356D01*
X69881035Y-74419428D01*
X69722666Y-74612230D01*
X69720665Y-74615668D01*
X69642283Y-74750343D01*
X69597160Y-74827872D01*
X69507745Y-75060805D01*
X69456722Y-75305039D01*
X69445404Y-75554288D01*
X67300000Y-75554288D01*
X67300000Y-75534908D01*
X67301504Y-75517717D01*
X67303124Y-75508530D01*
X67304628Y-75500000D01*
X67302978Y-75490640D01*
X67301601Y-75468437D01*
X67318730Y-75130687D01*
X67319745Y-75120710D01*
X67374977Y-74760167D01*
X67376995Y-74750343D01*
X67381835Y-74731652D01*
X67468429Y-74397207D01*
X67471426Y-74387656D01*
X67598118Y-74045575D01*
X67602063Y-74036383D01*
X67607384Y-74025537D01*
X67762710Y-73708885D01*
X67767575Y-73700120D01*
X67960522Y-73390565D01*
X67966239Y-73382350D01*
X68189523Y-73093890D01*
X68196053Y-73086284D01*
X68447373Y-72821895D01*
X68454628Y-72815000D01*
X68731401Y-72577398D01*
X68739317Y-72571270D01*
X69038716Y-72362881D01*
X69047223Y-72357580D01*
X69262674Y-72237994D01*
X69366154Y-72180559D01*
X69375149Y-72176146D01*
X69710364Y-72032294D01*
X69719752Y-72028817D01*
X70067806Y-71919615D01*
X70077504Y-71917104D01*
X70434805Y-71843677D01*
X70444702Y-71842160D01*
X70755134Y-71810592D01*
X70807603Y-71805257D01*
X70817618Y-71804749D01*
X71182382Y-71804749D01*
X71192397Y-71805257D01*
G37*
%TD.AperFunction*%
%TD*%
M02*
