M48
; DRILL file {KiCad 6.0.0-d3dd2cf0fa~116~ubuntu21.10.1} date la  1. tammikuuta 2022 15.31.37
; FORMAT={-:-/ absolute / inch / decimal}
; #@! TF.CreationDate,2022-01-01T15:31:37+02:00
; #@! TF.GenerationSoftware,Kicad,Pcbnew,6.0.0-d3dd2cf0fa~116~ubuntu21.10.1
; #@! TF.FileFunction,Plated,1,2,PTH
FMAT,2
INCH
; #@! TA.AperFunction,Plated,PTH,ViaDrill
T1C0.0157
; #@! TA.AperFunction,Plated,PTH,ComponentDrill
T2C0.0276
; #@! TA.AperFunction,Plated,PTH,ComponentDrill
T3C0.0335
; #@! TA.AperFunction,Plated,PTH,ComponentDrill
T4C0.0354
; #@! TA.AperFunction,Plated,PTH,ComponentDrill
T5C0.1063
%
G90
G05
T1
X2.7047Y-3.8543
X2.7151Y-4.189
X2.7702Y-4.1457
X2.8174Y-4.1181
X2.8647Y-4.063
X2.9055Y-3.6535
X3.3583Y-3.4134
X3.4882Y-3.5787
X3.8031Y-3.185
X4.0709Y-3.185
X4.2756Y-3.2402
X4.3307Y-3.3268
X4.3937Y-3.378
X4.4843Y-3.3228
X4.5709Y-3.1969
X4.7756Y-3.1969
X4.8071Y-3.2441
X4.8583Y-3.4567
T2
X2.7362Y-3.248
X2.8937Y-3.248
X3.0512Y-3.248
X3.2087Y-3.248
X3.3661Y-3.248
T3
X3.339Y-3.7205
X3.339Y-3.8858
T4
X2.7756Y-3.5748
X2.7756Y-3.6748
T5
X3.189Y-4.8819
X3.937Y-4.1732
T0
M30
